<?xml version="1.0" standalone="no"?>
<!DOCTYPE svg PUBLIC "-//W3C//DTD SVG 20010904//EN"
 "http://www.w3.org/TR/2001/REC-SVG-20010904/DTD/svg10.dtd">
<svg version="1.0" xmlns="http://www.w3.org/2000/svg"
 width="3600.000000pt" height="3600.000000pt" viewBox="0 0 3600.000000 3600.000000"
 preserveAspectRatio="xMidYMid meet">
<metadata>
Created by potrace 1.14, written by Peter Selinger 2001-2017
</metadata>
<g transform="translate(0.000000,3600.000000) scale(0.100000,-0.100000)"
fill="#000000" stroke="none">
<path d="M15848 35607 c-216 -136 -441 -340 -593 -537 -109 -142 -222 -342
-285 -505 -82 -215 -173 -608 -212 -915 -17 -137 -16 -517 1 -640 28 -201 95
-421 182 -594 22 -43 38 -80 36 -82 -10 -10 -209 211 -260 288 -162 244 -234
469 -244 773 -7 183 -16 187 -32 15 -29 -314 76 -668 299 -1008 71 -109 235
-319 273 -351 94 -77 -220 52 -371 153 -314 209 -521 549 -577 949 -9 61 -18
117 -21 122 -2 6 -2 -62 0 -150 5 -165 19 -245 67 -386 27 -79 90 -206 138
-279 20 -30 40 -62 45 -70 25 -40 -87 67 -146 140 -83 102 -140 215 -175 346
-24 90 -26 116 -27 284 0 164 3 200 26 310 34 158 94 340 164 495 66 146 37
115 -45 -50 -145 -291 -217 -631 -193 -910 5 -60 8 -111 7 -113 -5 -6 -44 123
-54 182 -57 318 99 745 433 1191 l67 90 -108 -111 c-222 -227 -382 -478 -469
-737 -56 -165 -69 -244 -69 -422 0 -170 12 -249 59 -388 13 -39 23 -73 22 -74
-10 -10 -160 109 -241 191 -240 241 -421 619 -510 1063 -18 93 -18 39 0 -101
65 -499 336 -976 724 -1277 127 -98 101 -90 -44 14 -231 166 -416 354 -573
583 -7 11 4 -14 24 -53 84 -168 234 -360 381 -488 86 -76 223 -174 293 -210
19 -10 29 -20 23 -22 -24 -8 -208 56 -318 110 -124 62 -184 102 -263 179 l-56
53 31 -45 c39 -56 180 -193 253 -245 64 -45 88 -67 45 -40 -135 81 -301 232
-395 357 -33 44 -60 76 -60 73 0 -17 77 -157 118 -215 97 -137 282 -297 452
-389 88 -48 86 -53 -5 -12 -94 43 -227 132 -295 199 -33 32 -60 55 -60 52 0
-4 31 -54 69 -111 78 -118 164 -216 245 -278 31 -24 56 -48 56 -53 0 -5 -21
-19 -47 -30 -166 -75 -420 40 -693 312 -96 95 -222 248 -277 336 -25 39 17
-69 54 -139 102 -193 326 -420 536 -542 115 -66 -11 -24 -160 54 -414 218
-672 550 -778 1001 -21 90 -24 97 -19 45 44 -486 328 -875 829 -1137 113 -59
119 -64 50 -48 -219 52 -625 70 -813 37 -94 -17 -256 -66 -248 -74 3 -3 47 1
98 9 149 21 492 16 667 -11 135 -20 408 -84 420 -98 3 -3 -7 -3 -24 2 -73 18
-259 46 -398 61 -186 20 -567 14 -722 -10 -123 -20 -257 -48 -251 -53 2 -2 44
3 92 11 360 63 788 27 1162 -95 50 -17 92 -34 92 -38 0 -3 -26 -25 -57 -48
-127 -93 -266 -267 -361 -452 -33 -64 -99 -217 -147 -341 -151 -391 -267 -685
-274 -693 -9 -9 -174 52 -356 132 -438 194 -787 450 -947 695 -55 85 -57 83
-9 -9 23 -44 67 -111 96 -150 72 -94 231 -248 335 -325 130 -95 123 -95 -20 0
-285 191 -489 396 -555 558 -73 179 -73 420 0 712 13 50 -37 -68 -70 -166 -45
-134 -66 -254 -67 -377 -1 -124 -14 -94 -26 58 -15 190 14 418 77 617 16 48
27 88 25 88 -11 0 -91 -179 -124 -279 -55 -165 -74 -294 -67 -445 4 -66 9
-134 11 -151 3 -17 -1 -11 -10 15 -31 94 -46 238 -41 395 6 165 27 282 74 415
46 129 46 130 8 52 -49 -102 -90 -222 -117 -343 -20 -90 -23 -131 -23 -299 0
-178 3 -204 27 -302 47 -185 112 -326 223 -484 l55 -79 -57 64 c-186 204 -324
471 -385 742 -20 90 -23 131 -23 299 0 223 17 325 83 519 21 61 37 111 35 111
-10 0 -104 -215 -131 -300 -57 -177 -67 -248 -67 -450 0 -139 5 -205 18 -265
28 -130 67 -242 122 -352 29 -57 51 -103 49 -103 -1 0 -28 38 -59 85 -118 177
-200 380 -231 572 -8 54 -18 100 -21 103 -3 3 -3 -74 0 -170 7 -195 34 -349
88 -512 137 -409 444 -787 865 -1066 72 -48 140 -93 150 -100 11 -7 -17 6 -61
29 -556 292 -972 776 -1124 1309 -74 260 -94 435 -88 750 7 309 37 502 122
785 19 61 36 119 40 130 24 82 -48 -102 -90 -230 -198 -599 -199 -1226 -1
-1790 19 -55 33 -101 31 -103 -9 -9 -109 273 -139 390 -46 180 -64 290 -77
480 -19 283 15 612 97 931 38 146 108 360 150 456 43 97 18 64 -31 -41 -202
-435 -316 -852 -346 -1266 -18 -260 14 -556 85 -772 27 -83 11 -74 -30 18 -69
151 -158 571 -190 895 -17 171 -34 28 -34 -287 0 -613 145 -1150 422 -1563 42
-62 74 -113 72 -113 -10 0 -118 156 -169 243 -72 125 -198 384 -270 557 -55
133 -56 134 -50 77 9 -79 66 -320 105 -441 42 -132 119 -312 175 -411 l45 -80
-36 40 c-62 70 -174 243 -245 378 -58 111 -68 126 -64 92 63 -497 166 -842
320 -1061 52 -76 49 -76 -73 -18 -233 113 -607 505 -978 1027 -109 152 -115
159 -68 72 185 -343 419 -683 610 -885 104 -111 103 -113 -11 -16 -396 340
-651 659 -775 972 -47 118 -51 105 -10 -38 81 -290 272 -622 494 -857 l41 -44
-35 19 c-57 31 -271 252 -340 352 -126 180 -230 387 -321 642 -51 142 -49 114
6 -69 243 -814 671 -1588 1164 -2104 41 -42 72 -79 69 -82 -10 -10 -109 68
-185 148 -96 100 -217 260 -340 449 -124 191 -115 180 -108 133 20 -134 110
-386 212 -592 117 -240 276 -468 448 -645 l85 -87 -49 -35 c-97 -71 -292 -294
-436 -496 l-39 -55 85 81 c147 140 309 260 464 344 l60 33 -93 -88 c-304 -287
-604 -753 -801 -1245 l-50 -125 -1 125 c0 224 29 485 80 715 16 72 32 141 35
155 3 14 -9 -13 -25 -60 -48 -130 -115 -372 -140 -502 -13 -65 -25 -117 -26
-115 -13 13 47 492 87 692 44 225 138 541 188 634 7 12 9 21 6 21 -10 0 -127
-243 -175 -364 -90 -225 -167 -526 -186 -726 -4 -41 -9 -69 -12 -62 -6 18 15
252 34 377 43 293 142 621 267 888 25 53 44 97 41 97 -11 0 -126 -187 -178
-288 -163 -320 -274 -748 -277 -1067 0 -44 -4 -98 -8 -120 -13 -59 -13 371 -1
496 13 137 37 286 61 383 20 78 21 121 1 49 -5 -21 -26 -94 -46 -163 -158
-543 -188 -1131 -83 -1598 13 -56 21 -101 17 -100 -4 2 -40 40 -81 86 -427
479 -594 1142 -478 1902 21 138 83 400 119 505 33 96 16 74 -33 -42 -111 -262
-178 -525 -207 -817 -18 -170 -8 -506 19 -665 36 -210 105 -448 177 -608 34
-77 44 -103 40 -103 -9 0 -167 272 -239 410 -182 349 -308 692 -378 1030 -23
111 -28 126 -28 85 -1 -28 6 -109 14 -180 60 -521 187 -920 403 -1275 34 -55
-43 40 -175 215 -195 260 -354 514 -479 770 -46 93 -84 166 -84 163 0 -4 14
-46 31 -95 113 -320 300 -678 536 -1028 108 -159 103 -158 -27 5 -106 132
-245 337 -315 463 -27 48 -50 85 -52 83 -6 -5 67 -166 147 -326 163 -327 373
-640 634 -950 76 -91 77 -92 22 -40 -183 174 -489 552 -626 774 -36 57 -66
103 -68 102 -6 -6 51 -171 94 -274 148 -352 382 -680 628 -877 41 -33 75 -62
75 -65 1 -3 -42 -64 -95 -135 -119 -162 -191 -276 -269 -430 -51 -99 -106
-231 -91 -214 2 2 39 51 82 109 76 104 291 332 349 373 21 15 15 5 -21 -34
-108 -116 -199 -263 -263 -424 -43 -108 -86 -263 -97 -347 -6 -52 -5 -50 63
84 88 173 315 513 288 433 -4 -11 -31 -92 -61 -181 -97 -289 -163 -580 -178
-779 l-7 -80 35 112 c41 130 84 241 125 321 55 107 60 104 35 -14 -41 -190
-64 -374 -69 -539 l-5 -160 35 124 c65 227 166 516 151 431 -15 -82 -28 -344
-22 -460 7 -158 26 -330 36 -330 4 0 12 31 18 68 19 113 94 344 107 330 2 -2
-5 -48 -16 -103 -27 -140 -66 -396 -84 -550 -14 -116 -31 -485 -19 -410 31
195 85 468 91 462 1 -2 -4 -53 -13 -113 -8 -60 -17 -210 -19 -334 l-5 -225 20
92 c12 51 35 138 53 194 l32 102 -4 -404 c-3 -402 7 -646 33 -809 l12 -75 7
65 c4 36 14 148 23 250 8 102 19 212 23 245 l8 60 2 -75 c5 -251 42 -577 86
-750 27 -106 58 -197 50 -145 -24 152 -35 275 -34 378 l1 122 18 -95 c45 -238
119 -468 221 -693 l40 -87 -33 -27 c-177 -146 -312 -333 -352 -490 -26 -100
-21 -163 33 -375 28 -106 75 -328 106 -493 82 -439 150 -733 234 -1012 60
-201 65 -254 55 -573 -14 -442 -11 -746 10 -880 23 -154 84 -387 140 -541 50
-138 212 -533 308 -753 l61 -138 -32 -67 c-38 -76 -34 -76 14 0 27 43 35 49
35 31 0 -12 -11 -45 -25 -72 -46 -92 -125 -404 -124 -490 l1 -55 9 55 c8 47
80 220 92 220 3 0 -2 -28 -9 -62 -8 -35 -17 -113 -20 -174 -7 -116 -1 -163 33
-243 l18 -41 1 127 c1 133 35 330 85 497 34 111 32 65 -2 -94 -30 -137 -32
-160 -36 -400 -3 -172 -1 -292 8 -370 l13 -115 8 65 c21 177 42 278 78 382 22
62 38 102 36 88 -47 -248 -55 -602 -21 -870 l19 -155 7 85 c8 96 28 224 38
253 9 24 3 -261 -9 -440 -6 -78 -24 -222 -40 -319 -16 -98 -28 -180 -25 -182
3 -3 5 2 5 10 0 9 23 83 50 164 28 81 50 157 51 168 0 12 3 16 5 9 3 -6 -4
-63 -16 -125 -33 -178 -37 -356 -10 -512 30 -179 39 -193 39 -65 1 118 16 281
36 397 l14 77 -5 -110 c-10 -208 30 -486 96 -666 31 -82 101 -241 105 -237 2
2 -5 41 -16 88 -25 113 -49 327 -48 420 l1 75 13 -85 c19 -116 66 -295 110
-415 93 -252 215 -732 215 -846 0 -67 -36 -143 -91 -193 -70 -63 -140 -96
-208 -97 -41 0 -51 -3 -36 -9 33 -14 143 -11 183 5 l37 15 -44 -40 c-104 -95
-222 -120 -313 -66 -56 32 -62 23 -15 -22 77 -74 198 -84 342 -26 18 7 19 6 6
-10 -8 -9 -33 -28 -55 -41 -106 -61 -250 -35 -388 71 -27 20 -48 31 -48 25 0
-61 171 -256 265 -301 65 -32 150 -37 255 -16 45 10 84 15 86 13 2 -2 -28 -19
-68 -38 -66 -31 -81 -34 -165 -34 -89 0 -91 -1 -75 -19 59 -65 164 -89 255
-58 57 19 57 19 40 -1 -52 -56 -167 -90 -263 -76 -25 4 -46 5 -48 4 -2 -2 20
-26 47 -54 55 -56 126 -94 208 -111 59 -13 139 3 215 41 l43 21 -39 -41 c-65
-67 -246 -153 -323 -153 -22 0 -52 5 -65 12 -16 8 -13 2 12 -20 60 -54 121
-92 168 -106 46 -14 58 -13 180 22 25 7 29 -7 7 -30 -14 -13 -39 -20 -165 -43
-45 -9 -45 -9 -20 -23 36 -20 125 -16 195 10 33 12 68 24 79 27 10 3 -15 -27
-56 -68 -124 -122 -207 -266 -221 -384 l-6 -50 28 61 c37 79 98 168 150 219
49 46 51 38 12 -36 -35 -64 -61 -182 -61 -273 0 -93 10 -111 27 -45 7 30 34
95 58 144 25 50 43 81 40 70 -19 -64 -24 -182 -15 -320 7 -100 7 -173 1 -220
-6 -38 -9 -70 -8 -71 5 -5 101 214 124 281 l23 70 -5 -50 c-2 -27 -7 -81 -11
-120 -8 -100 -42 -303 -54 -325 -5 -10 -10 -22 -10 -27 1 -11 145 211 170 261
l20 41 0 -45 c0 -105 -49 -329 -106 -485 -4 -11 20 14 53 55 59 73 91 127 119
199 13 34 14 31 8 -47 -6 -92 -31 -192 -68 -276 -14 -31 -23 -56 -21 -56 16 0
103 148 164 280 9 21 10 16 5 -30 -17 -153 -85 -337 -152 -411 -28 -31 -38
-48 -25 -41 35 19 137 117 168 162 15 22 30 39 32 37 9 -9 -20 -106 -49 -164
-17 -34 -61 -99 -99 -145 -91 -110 -92 -124 -3 -64 80 54 163 135 189 185 22
42 24 43 25 19 0 -15 -8 -47 -17 -70 -40 -104 -110 -167 -223 -203 -30 -10
-63 -23 -73 -30 -17 -12 -16 -13 7 -19 82 -21 339 63 404 132 l25 27 -18 -35
c-10 -19 -57 -74 -105 -123 -48 -48 -84 -89 -80 -92 16 -10 112 27 156 61 l47
36 -8 -49 c-9 -59 -25 -100 -74 -183 -53 -88 -59 -110 -30 -110 29 0 129 62
207 127 36 31 62 48 62 39 0 -27 -100 -211 -140 -258 -22 -25 -61 -61 -87 -78
l-48 -32 43 5 c53 6 181 78 235 132 35 35 39 37 32 15 -17 -56 -76 -159 -129
-228 -32 -39 -52 -72 -45 -72 7 0 57 45 112 101 55 55 96 92 93 82 -39 -100
-72 -333 -56 -393 l7 -25 7 29 c10 38 78 188 83 182 2 -2 -3 -38 -11 -80 -21
-100 -20 -293 3 -421 l17 -100 6 75 c4 41 20 116 36 165 l30 90 1 -51 c2 -82
30 -331 48 -429 l17 -90 8 85 c3 47 15 110 26 140 l19 55 9 -110 c4 -60 8
-191 9 -290 0 -164 -2 -185 -22 -234 -13 -30 -21 -56 -19 -58 2 -2 19 15 39
39 36 45 63 94 104 188 23 54 24 54 18 15 -3 -22 -23 -103 -45 -180 -42 -155
-54 -205 -47 -205 8 0 79 113 124 195 24 44 41 69 39 55 -20 -101 -55 -225
-97 -339 -48 -131 -62 -189 -22 -94 27 64 183 341 183 325 0 -7 -15 -75 -34
-150 -19 -75 -39 -172 -45 -215 -22 -157 -10 -493 21 -602 11 -39 12 -37 24
70 7 61 21 153 31 205 l18 94 0 -174 c0 -184 18 -311 66 -467 24 -76 79 -216
85 -211 2 2 -3 40 -11 83 -9 50 -14 142 -13 245 1 164 1 165 9 62 4 -56 13
-128 20 -160 35 -172 147 -409 253 -537 23 -28 23 -24 -9 50 -34 81 -69 203
-80 285 -5 38 1 28 38 -60 24 -58 56 -125 71 -150 36 -57 108 -152 112 -147 2
2 -6 27 -17 56 -17 46 -34 112 -54 211 -3 14 16 -20 43 -75 27 -55 77 -137
111 -183 64 -86 297 -329 266 -278 -100 166 -126 222 -160 338 -32 109 -31
115 9 42 40 -72 336 -478 336 -461 0 3 -7 24 -15 48 -24 66 -66 221 -62 225 4
4 91 -185 143 -311 19 -44 34 -77 34 -74 0 9 -49 321 -56 354 -10 47 0 30 61
-110 32 -71 76 -166 98 -210 40 -80 137 -238 142 -233 2 2 -5 39 -16 83 -25
106 -23 112 12 36 45 -98 225 -389 234 -379 2 2 -7 41 -20 88 -30 110 -63 254
-60 258 2 2 63 -120 137 -270 74 -150 144 -284 156 -298 l21 -25 1 28 c0 15
-14 66 -30 115 -38 107 -73 242 -66 250 4 3 6 -1 6 -9 0 -31 103 -226 196
-371 117 -184 121 -189 89 -111 -29 72 -75 228 -75 252 1 9 14 -18 29 -59 57
-152 113 -247 284 -475 117 -156 165 -213 189 -226 18 -10 19 -9 4 19 -8 16
-35 54 -61 85 -72 89 -124 213 -139 333 l-7 49 24 -60 c53 -133 101 -209 219
-345 56 -66 245 -240 205 -190 -67 85 -113 160 -153 249 -73 160 -51 157 60
-8 84 -126 165 -213 295 -318 58 -48 134 -114 169 -147 66 -64 81 -68 33 -7
-48 61 -121 179 -147 236 -13 30 -22 55 -21 55 2 0 36 -40 75 -89 80 -98 122
-138 269 -259 56 -46 118 -101 137 -122 20 -22 36 -38 36 -36 0 2 -36 69 -81
147 -44 79 -92 167 -105 194 l-25 50 41 -45 c23 -25 88 -115 145 -200 137
-204 153 -224 119 -145 -52 120 -154 378 -150 382 2 2 50 -65 107 -149 57 -84
121 -172 143 -196 36 -39 168 -150 260 -218 l40 -29 -49 60 c-73 90 -125 175
-205 335 -82 164 -68 166 38 5 150 -229 238 -331 376 -434 130 -97 133 -96 23
9 -116 110 -166 177 -240 325 l-55 111 152 -155 c173 -176 310 -294 376 -325
25 -12 70 -40 100 -62 53 -40 111 -74 127 -74 4 0 -56 62 -133 138 -125 123
-145 148 -197 242 -32 58 -54 101 -49 95 6 -5 33 -38 61 -72 63 -77 191 -185
296 -250 133 -83 135 -79 18 31 -96 92 -213 223 -213 239 0 3 53 -34 118 -82
64 -48 164 -121 222 -162 58 -41 141 -101 185 -133 l80 -59 -71 74 c-83 87
-164 183 -164 194 0 5 10 -1 23 -12 22 -20 224 -163 302 -214 74 -47 91 -50
41 -7 -147 127 -227 201 -236 219 -18 33 417 -262 590 -400 35 -28 65 -49 68
-46 6 6 -21 47 -82 125 -150 188 -195 250 -176 240 57 -31 295 -280 372 -390
l18 -25 -9 25 c-5 14 -32 77 -61 140 -83 183 -111 254 -95 240 25 -21 110
-160 180 -295 37 -72 65 -121 61 -110 -13 44 -86 381 -86 395 1 49 126 -188
171 -323 24 -73 39 -74 39 -2 0 55 -28 286 -44 362 -18 90 2 67 58 -65 65
-156 96 -253 104 -335 l8 -72 13 72 c7 42 11 122 9 188 -1 63 -2 115 -2 115 4
0 117 -263 133 -310 27 -77 26 -33 -3 114 -13 66 -27 148 -30 181 -4 54 1 41
53 -115 32 -96 73 -204 92 -240 l34 -65 6 195 c3 107 12 236 20 285 l14 90 6
-78 c4 -43 15 -119 25 -170 17 -87 18 -90 27 -57 22 85 102 258 115 246 2 -3
-6 -54 -17 -114 -12 -60 -21 -113 -21 -118 1 -5 14 27 31 71 32 87 109 248
115 242 3 -2 -3 -37 -12 -78 -20 -94 -32 -389 -15 -389 6 0 11 4 11 10 0 5 29
72 64 147 35 76 88 203 117 282 30 79 55 137 57 129 3 -15 -68 -300 -87 -351
-6 -15 -9 -27 -7 -27 9 0 133 233 163 305 18 44 33 72 33 63 0 -27 -74 -243
-118 -346 -22 -52 -38 -91 -35 -88 3 3 28 36 57 74 28 38 78 105 112 148 81
106 115 163 157 269 55 135 44 79 -23 -127 -34 -100 -70 -217 -80 -258 -19
-71 -39 -270 -27 -270 3 0 15 33 27 73 11 39 53 138 91 219 38 80 83 181 99
225 16 43 29 74 30 69 0 -4 -16 -68 -35 -140 -19 -72 -42 -176 -50 -231 -15
-98 -20 -234 -10 -223 3 3 17 52 29 109 13 58 47 173 76 258 74 219 97 268 64
136 -8 -33 -17 -121 -20 -195 l-5 -135 33 75 c46 101 115 226 183 330 68 102
64 82 -17 -87 -65 -138 -102 -233 -92 -242 3 -3 10 1 15 9 5 8 46 79 92 156
46 78 116 184 154 235 39 52 84 117 101 144 39 63 40 55 2 -40 -39 -99 -92
-203 -147 -290 l-44 -70 42 45 c84 91 292 336 322 380 17 25 44 68 59 95 15
28 28 47 28 43 0 -6 -59 -165 -183 -491 -25 -65 -43 -116 -41 -114 2 2 32 46
67 98 192 286 277 410 277 405 0 -25 -163 -370 -233 -493 -20 -35 -34 -63 -32
-63 6 0 362 504 399 565 20 33 36 57 36 54 0 -13 -79 -235 -124 -348 -25 -62
-43 -111 -41 -109 3 2 54 87 116 189 118 197 171 294 201 374 l18 50 -5 -50
c-6 -58 -26 -123 -125 -405 -70 -199 -95 -257 -141 -330 l-23 -35 28 25 c47
42 78 95 210 355 136 271 215 417 216 399 0 -13 -77 -240 -109 -323 -12 -29
-20 -56 -17 -58 10 -11 65 94 164 312 57 127 108 243 114 258 6 15 12 26 15
23 2 -2 -7 -41 -21 -86 -15 -45 -33 -122 -42 -171 -16 -96 -12 -145 24 -264
l19 -60 7 59 c10 76 69 314 95 386 l21 55 -8 -50 c-10 -70 -9 -352 2 -400 9
-40 9 -39 23 45 17 97 87 346 130 464 l30 79 0 -104 c0 -125 14 -192 59 -279
36 -68 91 -142 79 -105 -14 45 -46 256 -51 340 -3 50 -1 104 5 120 l9 30 1
-38 c3 -129 78 -311 166 -404 l55 -58 -35 60 c-66 111 -85 212 -85 447 0 171
14 280 46 365 9 24 18 42 20 41 1 -2 -4 -30 -12 -63 -27 -117 -11 -272 40
-378 l25 -52 -6 86 c-6 96 8 244 38 393 26 129 35 143 31 48 -4 -74 20 -326
36 -384 4 -15 7 40 8 125 0 127 5 170 26 262 40 169 45 175 46 62 1 -125 8
-190 35 -302 l22 -90 2 75 c5 147 57 538 75 556 3 2 8 -109 11 -248 8 -324 15
-350 47 -192 21 100 24 148 25 306 0 127 3 180 9 165 12 -27 14 -330 3 -452
-13 -143 9 -80 28 80 8 77 28 203 43 280 l27 140 7 -80 c4 -44 11 -134 14
-200 l7 -120 18 87 c25 121 71 252 135 388 29 63 54 110 54 104 0 -6 -9 -53
-21 -105 -15 -71 -22 -146 -26 -304 -3 -115 -3 -208 0 -205 3 3 17 68 32 144
34 181 73 302 148 456 33 69 70 152 83 185 41 106 27 21 -31 -196 -30 -112
-54 -208 -54 -214 2 -29 77 156 135 335 37 113 71 209 75 214 29 32 -10 -150
-71 -339 -27 -82 -48 -150 -46 -152 3 -4 111 223 143 302 14 33 44 137 69 230
37 145 43 160 39 105 -3 -36 -10 -132 -15 -215 -6 -82 -13 -161 -16 -175 -4
-20 -3 -22 5 -10 30 41 121 387 121 461 0 24 3 30 9 20 19 -30 23 -223 7 -330
-19 -124 -19 -138 -1 -89 28 75 66 325 81 531 4 54 9 95 11 93 3 -3 14 -87 25
-188 17 -160 18 -199 7 -308 -6 -69 -17 -147 -24 -175 -8 -27 -12 -51 -11 -53
7 -6 67 170 90 263 37 146 56 265 64 400 6 107 7 114 13 65 4 -30 8 -113 9
-185 l2 -130 30 155 c17 85 34 162 37 170 3 8 8 -46 11 -120 l5 -135 8 80 c11
108 31 199 62 281 32 84 156 337 162 330 3 -2 -9 -53 -26 -113 -40 -141 -61
-268 -60 -357 l1 -71 29 105 c52 183 110 383 129 445 17 56 18 58 19 24 1 -52
36 -180 63 -233 l23 -45 -3 192 c-5 256 -1 300 16 181 6 -50 18 -107 25 -127
11 -32 12 -22 13 101 1 106 7 165 27 263 38 179 42 185 42 51 1 -74 8 -153 20
-217 l20 -100 6 130 c7 146 31 250 103 460 51 145 51 145 11 -137 -14 -97 -25
-180 -24 -185 0 -4 14 55 30 132 17 77 54 212 84 300 l53 160 1 -92 c1 -81
-11 -210 -25 -268 -12 -53 124 233 153 320 35 107 35 92 -4 -109 -13 -70 -22
-130 -20 -132 2 -3 12 24 22 58 9 35 38 126 62 203 25 77 56 181 69 230 l23
90 2 -100 c3 -163 -2 -267 -16 -346 -7 -41 -11 -75 -10 -77 1 -1 23 51 48 115
47 122 90 283 128 485 13 65 24 116 26 115 12 -13 34 -238 31 -317 -5 -93 -4
-94 9 -50 21 70 42 220 49 361 4 71 9 128 11 125 2 -2 15 -57 28 -122 l24
-119 -2 227 c-2 196 0 222 11 190 31 -91 55 -205 61 -297 l6 -100 18 88 c9 49
26 159 38 245 32 245 31 240 45 142 7 -47 13 -114 14 -150 l2 -65 14 69 c20
103 70 248 127 369 27 59 52 106 53 104 2 -2 -5 -52 -16 -112 -11 -61 -22
-153 -25 -205 -5 -103 -4 -102 36 67 11 44 37 131 57 193 l38 111 33 -46 c32
-45 98 -99 176 -145 22 -14 35 -18 29 -10 -6 8 -25 33 -42 55 -30 39 -102 161
-102 173 0 4 7 -3 15 -16 36 -50 163 -102 254 -102 54 0 163 29 155 41 -3 5
-15 9 -27 9 -49 0 -301 147 -270 157 7 3 48 -7 93 -21 111 -35 123 -33 54 12
-54 36 -106 82 -91 82 3 0 23 -11 43 -25 20 -14 60 -32 88 -41 52 -16 206 -32
206 -21 0 3 -25 17 -55 31 -67 31 -167 123 -206 191 -52 90 -33 88 74 -6 45
-40 99 -80 122 -90 56 -25 135 -41 164 -34 23 6 21 8 -25 34 -62 36 -135 113
-168 179 -20 39 -66 179 -66 201 0 2 10 -9 22 -25 29 -40 101 -114 109 -114 4
0 -1 27 -12 60 -10 33 -23 108 -28 167 -23 239 -22 241 19 138 13 -33 33 -82
45 -109 l22 -49 12 259 c7 142 14 266 15 274 4 25 36 -130 44 -215 l8 -80 14
75 c11 54 15 152 15 347 0 149 1 270 3 268 1 -1 17 -42 34 -91 19 -56 33 -118
36 -169 6 -76 6 -78 13 -35 4 25 11 160 15 300 l8 255 25 -125 26 -125 7 70
c4 39 12 158 18 265 16 273 22 293 43 158 10 -60 20 -155 24 -213 3 -58 8
-103 11 -100 3 3 8 159 11 347 l6 343 21 -60 22 -60 -5 130 c-4 90 0 181 13
295 9 91 18 226 17 300 0 201 16 108 24 -135 3 -110 9 -191 13 -180 5 11 18
118 30 238 17 159 21 252 17 340 l-5 122 20 -50 c37 -91 58 -179 64 -265 4
-47 10 -91 14 -99 13 -25 21 280 11 409 -6 68 -9 126 -7 127 1 2 23 -70 48
-160 l46 -162 1 85 c0 47 -4 206 -9 354 -6 148 -8 271 -6 273 5 5 56 -214 56
-242 1 -42 17 10 24 75 4 36 36 210 71 387 35 178 67 351 71 385 13 126 22 87
29 -133 9 -247 11 -248 49 -18 17 96 28 211 32 335 l8 189 18 -60 c10 -33 29
-115 41 -183 13 -76 24 -114 27 -100 7 27 -7 444 -18 565 -4 45 -5 80 -1 78
10 -7 39 -119 59 -225 15 -78 18 -87 19 -50 2 108 -29 364 -70 579 -10 57 -18
105 -16 107 2 2 12 -22 21 -54 36 -114 119 -343 122 -339 7 7 -65 347 -116
544 -27 106 -68 241 -91 300 -59 156 -79 213 -73 213 7 0 99 -197 114 -245 13
-43 121 -277 126 -273 1 2 -26 147 -61 323 -35 176 -62 321 -61 323 2 1 31
-74 66 -168 35 -94 65 -168 67 -166 2 2 -3 44 -13 92 -11 64 -17 164 -20 349
l-4 260 24 -90 c24 -90 66 -209 71 -203 1 2 -12 149 -30 328 -31 305 -60 698
-52 707 5 4 40 -114 79 -262 l28 -110 -4 165 c-4 143 -41 448 -82 675 -3 17 6
1 19 -35 14 -36 37 -96 52 -135 16 -38 41 -110 56 -160 32 -104 34 -90 14 90
-13 122 -25 187 -104 564 -17 79 -33 171 -36 205 l-5 61 25 -80 c14 -44 44
-136 65 -205 41 -127 88 -231 108 -238 8 -2 7 11 -3 40 -8 24 -33 122 -55 218
-22 96 -44 190 -50 209 -5 19 -8 36 -7 38 5 4 62 -130 92 -212 l25 -70 -6 50
c-12 112 -38 227 -78 350 -69 208 -70 203 26 108 46 -46 87 -83 90 -83 8 0
-39 139 -103 308 -55 144 -49 169 9 37 26 -60 53 -119 60 -130 23 -39 12 7
-18 75 -49 112 -74 218 -65 285 8 64 13 64 37 -3 20 -56 21 -39 8 88 -8 69 -7
115 2 170 l12 75 12 -47 c6 -26 24 -128 40 -227 15 -99 32 -177 36 -175 20 12
-1 266 -32 401 -24 101 -39 197 -30 186 3 -4 24 -51 45 -103 36 -90 82 -180
91 -180 3 0 1 8 -4 18 -5 9 -26 87 -47 172 -20 85 -46 188 -56 228 -10 40 -19
76 -19 80 0 4 29 -51 64 -121 58 -116 102 -184 113 -173 2 2 -18 48 -45 102
-27 55 -63 138 -80 186 -32 89 -57 206 -48 216 7 6 96 -179 96 -198 0 -7 3
-11 6 -8 9 10 -37 188 -73 282 -18 49 -32 94 -30 100 2 5 27 -37 55 -94 28
-58 52 -97 52 -87 0 30 -39 135 -82 221 l-41 81 -5 290 c-7 403 10 584 89 935
55 249 74 371 104 660 14 140 37 323 51 405 56 329 19 580 -110 749 l-38 48
17 47 c47 125 144 351 243 562 61 129 122 272 136 318 43 135 82 351 131 716
58 427 67 483 165 965 44 217 88 458 97 535 l18 140 8 -75 c18 -176 -18 -450
-98 -732 -5 -19 -2 -17 14 7 30 46 78 198 100 320 61 341 52 648 -29 978 l-29
118 20 101 c54 278 38 580 -41 762 -38 89 -14 58 32 -41 73 -156 109 -281 132
-460 l14 -108 1 136 c2 261 -59 471 -199 680 l-43 64 37 -35 c85 -80 172 -216
238 -375 20 -49 38 -85 38 -79 0 24 -73 304 -110 416 -76 235 -225 444 -562
793 l-145 149 28 63 c62 138 116 344 139 523 15 125 12 352 -6 461 -34 204
-133 438 -273 646 -107 158 -160 217 -71 78 95 -148 218 -395 263 -530 38
-116 67 -260 66 -329 0 -33 -8 -14 -39 94 -116 406 -373 878 -630 1160 l-32
35 24 -35 c113 -162 146 -213 222 -339 192 -320 310 -618 331 -833 5 -56 2
-48 -29 67 -66 251 -170 488 -294 675 -60 91 -172 231 -172 216 0 -3 31 -53
70 -112 126 -194 237 -447 274 -626 8 -40 13 -74 12 -76 -2 -2 -16 30 -31 70
-144 381 -351 747 -677 1196 l-118 163 -41 192 c-116 540 -299 1029 -524 1398
-307 504 -832 810 -1565 914 -58 8 -126 15 -152 15 -26 0 -49 4 -52 9 -9 14
-55 445 -67 631 -21 312 3 657 51 751 22 43 73 89 106 95 198 37 620 -421 895
-970 49 -98 89 -173 89 -167 0 20 -78 244 -115 331 -91 214 -225 418 -374 573
-136 140 -246 223 -396 298 -76 38 -107 57 -85 53 459 -84 830 -247 1059 -467
l64 -62 -44 53 c-116 138 -337 288 -556 378 -58 23 -107 44 -110 47 -7 8 161
-30 260 -58 313 -90 576 -254 704 -440 30 -42 34 -46 28 -21 -12 53 -62 151
-110 214 -181 239 -611 441 -1132 531 -72 12 -102 21 -90 26 29 12 382 -2 497
-20 429 -67 767 -244 983 -515 67 -84 70 -75 16 59 -48 121 -117 228 -211 327
-204 213 -466 332 -848 385 -118 17 -486 17 -594 1 -44 -7 -81 -10 -84 -8 -14
15 148 484 242 701 l52 120 33 -3 c47 -4 223 -74 304 -121 80 -47 79 -37 -1
18 -72 48 -158 92 -242 121 -36 13 -67 25 -68 26 -8 6 62 124 73 124 35 0 245
-144 343 -234 33 -31 63 -56 66 -56 4 0 -8 21 -26 46 -51 71 -180 189 -274
250 -75 49 -83 58 -72 72 12 15 11 16 -5 3 -15 -12 -26 -10 -90 20 -39 18
-108 45 -152 61 -51 17 -81 33 -83 44 -5 22 38 277 48 287 21 23 333 -168 438
-266 80 -77 -6 70 -101 170 -80 84 -163 147 -250 189 -52 26 -57 31 -53 54 5
24 5 24 -5 4 l-11 -22 -59 24 c-88 36 -248 72 -375 86 -251 26 -590 -39 -907
-174 -90 -38 -124 -48 -145 -43 l-27 8 30 13 c28 12 25 13 -45 11 -44 -1 -124
8 -195 22 -79 15 -176 24 -285 28 -270 9 -480 -20 -709 -99 -471 -162 -896
-516 -1162 -967 l-63 -107 -101 39 c-55 22 -102 41 -104 43 -7 6 65 120 135
213 108 143 207 242 370 369 57 45 -189 -88 -268 -145 -103 -73 -248 -215
-323 -315 -51 -69 -75 -92 -75 -72 0 4 26 46 57 93 77 116 261 299 383 380
131 88 273 156 425 207 142 47 147 55 15 24 -389 -93 -726 -308 -940 -604 -49
-67 -59 -75 -88 -75 -19 -1 -32 3 -30 9 11 34 145 205 231 296 100 106 101
108 52 80 -106 -61 -243 -187 -337 -312 l-40 -54 -157 0 c-412 0 -857 -108
-1243 -301 -76 -38 -138 -71 -138 -73 0 -3 51 19 113 49 219 104 443 174 709
221 131 23 191 27 412 31 l258 5 -18 -27 c-16 -25 -21 -27 -63 -21 -25 4 -116
9 -201 12 -306 12 -644 -50 -961 -177 -89 -35 -191 -83 -134 -63 268 95 576
151 891 161 177 6 378 -9 389 -28 4 -6 -65 -160 -79 -176 0 0 -35 5 -76 12
-279 49 -762 42 -1170 -15 -41 -6 -86 -12 -100 -14 -54 -8 -329 -67 -392 -85
l-68 -18 0 49 c0 28 9 94 20 148 39 189 112 361 212 494 187 250 635 414 1233
453 117 7 118 8 55 14 -106 11 -364 10 -468 -2 -144 -15 -283 -46 -407 -88
-60 -21 -119 -41 -130 -45 -11 -3 21 14 72 39 361 176 796 230 1158 145 44
-10 89 -21 100 -24 11 -4 2 3 -20 14 -106 53 -297 95 -486 106 -203 11 -485
-29 -707 -101 -58 -19 -108 -32 -110 -30 -8 7 214 113 353 168 134 53 284 100
445 139 62 15 67 17 25 12 -156 -17 -670 -139 -859 -204 -503 -173 -982 -510
-1333 -937 -42 -51 172 304 290 482 290 435 598 795 962 1124 91 82 15 24
-155 -119 -125 -105 -438 -410 -564 -550 l-68 -75 49 64 c214 283 461 544 788
836 51 45 -154 -104 -275 -201 -393 -313 -734 -685 -960 -1046 -82 -132 -198
-363 -249 -498 l-40 -105 -1 81 c-1 309 88 686 230 972 177 355 391 599 760
865 14 10 -15 -3 -65 -28 -182 -93 -409 -281 -558 -463 -55 -68 -171 -237
-225 -328 -38 -66 -15 0 45 126 158 334 431 624 754 799 92 50 77 52 -44 5
-373 -144 -663 -396 -821 -712 -141 -282 -270 -713 -335 -1123 -24 -149 -51
-398 -51 -471 l0 -52 -66 64 c-265 260 -459 593 -520 892 -24 120 -15 313 20
432 164 550 739 964 1451 1044 l80 9 -110 2 c-320 3 -660 -93 -905 -258 -267
-180 -474 -454 -609 -811 -47 -122 -51 -121 -16 6 157 572 594 989 1235 1178
97 29 254 62 356 75 l69 8 -76 2 c-99 1 -257 -15 -373 -39 -496 -102 -849
-373 -1157 -886 -85 -143 -82 -119 11 71 180 369 473 690 803 880 65 37 75 45
47 39 -60 -12 -183 -62 -265 -109 -386 -220 -730 -697 -960 -1331 -61 -169
-120 -402 -137 -539 -12 -103 -13 -107 -20 -65 -4 25 -11 135 -14 245 -10 300
27 539 124 810 150 418 455 838 817 1124 117 93 116 95 -7 18z m7828 -1272
c91 -16 189 -42 279 -76 l52 -19 -51 -155 c-50 -151 -52 -155 -76 -149 -158
38 -488 55 -685 35 -370 -38 -729 -157 -1019 -339 -53 -34 -94 -56 -90 -49 41
72 247 283 362 371 65 50 74 51 150 30 9 -2 -1 4 -23 14 l-40 19 79 51 c43 29
82 52 86 52 15 0 177 -59 244 -89 36 -17 66 -28 66 -26 0 8 -101 76 -169 113
l-74 40 31 16 c121 62 338 136 477 161 97 18 295 18 401 0z m-1367 -123 l45
-7 -84 -53 -84 -54 -124 13 c-215 21 -457 -3 -626 -61 -33 -11 -61 -19 -62
-17 -2 2 29 22 69 44 130 73 284 122 453 143 72 9 336 4 413 -8z m181 -32 c8
0 -1 -10 -20 -22 -19 -11 -59 -36 -88 -55 -43 -28 -60 -33 -84 -28 -31 7 -30
8 53 62 57 37 90 52 104 49 11 -3 27 -6 35 -6z m-380 -127 c0 -5 -47 -48 -105
-97 -58 -49 -141 -127 -186 -173 l-81 -85 -111 24 c-89 18 -142 23 -262 22
-187 0 -291 -23 -430 -94 -52 -27 -93 -45 -90 -40 10 16 173 149 232 189 199
133 484 228 753 250 128 11 280 13 280 4z m147 -9 c20 -6 12 -14 -65 -72 -102
-77 -307 -279 -377 -372 -52 -70 -73 -95 -60 -70 9 17 76 112 85 120 3 3 20
25 39 50 69 90 168 195 256 272 49 43 92 78 95 78 3 0 15 -3 27 -6z m-5187
-28 c0 -2 -8 -10 -17 -17 -16 -13 -17 -12 -4 4 13 16 21 21 21 13z m6783 -152
c54 -13 26 -24 -62 -24 -255 0 -559 -99 -797 -259 -421 -282 -730 -809 -863
-1470 -44 -218 -62 -389 -70 -661 l-6 -245 -46 75 c-161 261 -258 519 -289
774 -17 129 -7 353 19 466 49 215 147 420 281 590 l51 65 -73 -76 c-133 -138
-240 -321 -308 -529 -54 -165 -73 -285 -74 -477 -1 -89 -2 -160 -4 -158 -14
13 -31 186 -32 306 0 167 15 266 62 397 163 464 582 869 1124 1087 144 58 420
125 614 149 51 6 440 -2 473 -10z m11 -111 c-23 -113 -23 -113 -44 -113 -15 0
-20 7 -21 28 l-1 27 -14 -32 c-12 -29 -19 -33 -53 -33 -56 0 -202 -27 -306
-56 -371 -104 -710 -423 -957 -899 -37 -71 -68 -126 -68 -121 0 5 31 73 69
152 233 483 508 787 876 972 150 75 372 140 486 141 l47 1 -14 -67z m237 48
c86 -29 159 -63 159 -72 0 -5 -17 -35 -37 -67 -21 -31 -38 -58 -38 -59 -1 -2
-33 4 -71 12 -38 8 -85 15 -104 15 -56 0 -58 5 -47 103 l9 87 38 0 c20 0 61
-8 91 -19z m-2458 -102 c40 -6 74 -13 76 -15 2 -2 -28 -41 -68 -88 -168 -200
-314 -422 -434 -662 -62 -124 -152 -350 -177 -443 l-12 -45 -91 98 c-111 120
-238 233 -380 339 -122 91 -118 76 -57 198 120 238 292 422 490 523 153 78
263 104 453 105 71 1 161 -4 200 -10z m2183 -157 c-19 -144 -37 -370 -51 -642
-19 -371 -22 -396 -23 -210 -3 239 29 867 45 893 2 4 11 7 20 7 13 0 14 -8 9
-48z m268 38 c32 -5 61 -11 63 -13 2 -3 -13 -33 -33 -67 -31 -53 -154 -303
-192 -390 -10 -22 -11 -20 -11 25 -1 57 16 324 24 403 l6 52 42 0 c23 0 68 -4
101 -10z m-417 -197 c-36 -98 -71 -195 -78 -215 -8 -25 -34 -54 -81 -93 -119
-97 -255 -287 -361 -505 l-51 -105 -80 -48 c-222 -132 -426 -310 -499 -437
-84 -145 -156 -377 -199 -639 -26 -159 -36 -149 -45 49 -9 196 25 423 102 689
227 779 697 1328 1265 1477 47 12 86 19 88 14 2 -4 -26 -88 -61 -187z m-4102
-153 c3 -5 -1 -22 -9 -38 -12 -24 -20 -28 -41 -25 -29 6 -29 6 -10 43 15 29
48 40 60 20z m155 -26 c0 -11 -42 -75 -47 -71 -6 7 29 77 39 77 4 0 8 -3 8 -6z
m252 -79 c51 -20 94 -38 96 -40 6 -6 -29 -95 -38 -95 -7 0 -193 79 -198 85 -6
6 31 85 39 85 6 0 51 -16 101 -35z m-484 -54 c-2 -4 -18 -44 -37 -89 -32 -75
-51 -101 -51 -69 0 14 39 157 46 168 5 9 46 -1 42 -10z m408 -143 c52 -23 93
-46 91 -52 -2 -6 -14 -42 -27 -81 -12 -38 -24 -72 -26 -74 -1 -2 -44 14 -93
34 -63 26 -91 43 -91 54 0 15 24 119 35 149 6 17 6 17 111 -30z m3573 -138
c-28 -90 -51 -165 -52 -165 -1 0 -28 -13 -60 -28 -31 -15 -60 -27 -62 -27 -3
0 13 35 36 78 59 107 181 314 184 310 2 -2 -19 -77 -46 -168z m-2941 18 c124
-92 224 -179 360 -312 109 -107 121 -126 103 -155 -6 -10 -26 3 -81 53 -111
102 -272 228 -407 319 -67 45 -122 88 -123 95 0 7 7 29 15 48 17 41 8 44 133
-48z m-48 -218 c142 -100 249 -183 391 -306 l96 -82 -5 -59 c-2 -32 -6 -60 -8
-62 -2 -2 -43 28 -91 67 -129 103 -296 220 -430 303 -65 40 -120 74 -122 76
-8 6 27 153 36 153 2 0 62 -40 133 -90z m2860 -257 c0 -4 -16 -78 -35 -165
-49 -221 -91 -481 -114 -699 -16 -154 -24 -195 -44 -235 -27 -52 -104 -154
-116 -154 -15 0 -22 314 -11 480 6 91 20 224 31 295 26 164 83 362 112 393 11
12 52 38 90 57 70 35 87 41 87 28z m-9720 -39 c0 -2 -9 0 -20 6 -11 6 -20 13
-20 16 0 2 9 0 20 -6 11 -6 20 -13 20 -16z m9300 -473 c-33 -177 -55 -698 -34
-828 6 -37 4 -40 -37 -67 l-42 -28 6 243 c7 303 28 455 89 667 24 83 33 89 18
13z m1230 -1173 c688 -154 1170 -456 1443 -903 58 -96 181 -335 175 -341 -2
-2 -32 36 -65 84 -80 112 -210 273 -313 387 -320 354 -740 565 -1284 645 -127
19 -146 27 -146 61 0 9 -3 37 -6 63 l-7 46 34 -6 c19 -3 95 -20 169 -36z m-57
-153 c393 -75 777 -254 1052 -490 257 -221 472 -507 636 -850 84 -176 213
-516 181 -480 -5 6 -53 87 -107 180 -102 177 -219 357 -299 460 -110 142 -276
289 -396 350 -63 32 -248 90 -355 111 -64 13 -137 19 -254 19 l-163 0 71 22
c189 59 415 85 561 64 123 -18 193 -46 320 -127 14 -9 1 6 -27 33 -105 99
-271 171 -478 209 -77 14 -152 18 -322 19 -122 0 -220 1 -219 2 1 1 47 10 101
19 206 34 480 17 649 -40 39 -14 72 -23 74 -22 1 2 -35 20 -80 41 -251 115
-566 174 -871 163 -134 -5 -137 -5 -142 16 -3 11 -14 77 -25 146 -11 69 -23
135 -25 148 -7 27 8 28 118 7z m-508 -3485 l50 -7 -53 -2 c-63 -1 -230 -34
-287 -56 -33 -12 -35 -14 -10 -10 17 2 62 10 100 16 92 15 351 15 440 0 75
-13 228 -51 223 -57 -2 -1 -46 4 -98 12 -125 18 -351 18 -470 -1 -52 -9 -95
-17 -96 -18 -1 -1 73 -2 164 -3 183 0 295 -12 447 -49 100 -23 279 -84 272
-91 -2 -2 -30 5 -63 16 -120 42 -292 70 -449 75 l-150 4 109 -14 c332 -45 654
-156 840 -289 105 -75 104 -88 0 -30 -153 84 -335 149 -474 168 -32 5 -5 -8
90 -44 261 -97 584 -277 720 -400 l45 -41 -45 24 c-51 29 -141 57 -179 57 -17
0 6 -15 69 -43 154 -70 303 -169 380 -253 19 -21 28 -33 20 -28 -8 6 -37 23
-65 38 -43 23 -46 24 -20 4 163 -126 256 -214 145 -136 -123 86 -119 76 21
-40 48 -40 93 -80 100 -89 8 -10 -8 1 -36 23 -27 23 -70 53 -95 67 -107 61
-101 46 33 -83 161 -155 376 -404 247 -285 -60 55 -125 102 -180 130 -25 12
11 -29 123 -143 86 -88 157 -162 157 -165 0 -4 -38 24 -84 61 -143 114 -157
112 -36 -7 89 -86 103 -104 64 -77 -51 36 -116 67 -164 81 -14 4 16 -20 65
-52 93 -61 229 -172 221 -180 -3 -3 -24 8 -48 25 -42 29 -181 102 -194 102 -3
0 48 -40 114 -90 129 -96 164 -130 85 -81 -60 37 -174 88 -153 68 8 -7 62 -52
120 -99 58 -47 130 -112 160 -144 l55 -57 -75 62 c-41 34 -108 84 -150 112
l-75 51 85 -78 c127 -117 276 -264 268 -264 -4 0 -38 28 -75 61 -92 84 -266
200 -279 186 -2 -2 31 -33 73 -70 43 -36 107 -96 143 -133 l65 -67 -66 52
c-66 50 -196 131 -212 131 -5 0 25 -27 65 -59 40 -33 93 -78 118 -101 l45 -42
-40 22 c-22 13 -65 36 -95 53 -55 30 -54 30 70 -99 104 -108 270 -309 270
-326 0 -3 -33 27 -73 67 -71 69 -215 185 -232 185 -4 0 31 -39 78 -87 47 -49
105 -113 128 -143 33 -43 16 -29 -76 60 -65 63 -102 95 -81 70 117 -142 186
-228 186 -234 0 -3 -27 15 -59 42 -33 26 -84 60 -113 76 l-53 29 60 -62 c57
-59 68 -85 16 -38 l-25 22 25 -35 c77 -106 140 -203 123 -189 -122 101 -193
151 -168 118 37 -48 106 -142 139 -189 l38 -55 -49 46 c-90 85 -144 109 -75
34 48 -52 136 -185 176 -265 l27 -55 -33 40 c-43 52 -184 195 -172 175 4 -8
29 -46 54 -85 65 -100 66 -104 23 -65 -77 70 -91 78 -54 32 49 -61 98 -132
117 -166 13 -24 3 -19 -53 30 -98 85 -115 96 -81 54 60 -76 124 -162 142 -192
15 -26 3 -19 -66 38 -117 97 -130 105 -84 54 64 -70 150 -189 185 -255 l32
-60 -38 45 c-65 76 -177 191 -209 213 -30 21 -30 21 6 -23 36 -46 139 -193
154 -220 4 -8 -14 5 -40 30 -49 46 -49 39 0 -40 47 -78 77 -136 56 -110 -97
117 -116 138 -119 135 -2 -1 21 -40 51 -86 30 -46 68 -111 86 -144 l32 -60
-33 39 c-90 107 -128 148 -183 197 -56 51 -58 51 -29 14 48 -61 139 -205 168
-266 25 -49 25 -51 4 -24 -12 17 -40 48 -61 70 l-39 40 40 -60 c47 -71 102
-168 102 -179 0 -5 -20 18 -44 50 -24 33 -74 88 -111 124 l-67 65 71 -95 c39
-52 87 -126 107 -165 23 -47 28 -60 12 -40 -12 17 -47 55 -76 85 l-54 55 57
-85 58 -85 -83 80 -83 80 50 -65 c55 -71 163 -234 163 -246 0 -4 -22 25 -50
64 -55 78 -87 108 -45 43 14 -23 30 -54 36 -69 9 -25 7 -24 -33 14 -66 62 -88
75 -55 34 31 -39 99 -137 112 -160 4 -8 -7 -1 -26 16 -19 17 -52 44 -74 59
l-40 29 46 -50 c46 -49 99 -116 114 -144 4 -8 -24 19 -62 60 -39 42 -92 93
-118 115 -41 33 -31 18 61 -97 101 -125 173 -231 145 -214 -18 12 -13 -2 19
-46 47 -64 36 -63 -33 5 -35 34 -86 78 -113 97 -49 34 -49 34 16 -30 36 -36
81 -87 99 -114 l34 -49 -66 56 c-97 83 -120 89 -52 15 33 -36 76 -87 95 -114
26 -38 13 -27 -59 46 -93 95 -101 99 -51 25 15 -22 46 -71 70 -110 l42 -70
-77 75 -78 75 55 -75 c62 -84 99 -146 123 -205 20 -47 17 -45 -65 63 -34 45
-64 82 -66 82 -2 0 12 -28 32 -62 44 -78 96 -189 91 -194 -2 -2 -20 20 -40 48
-20 29 -64 82 -97 118 l-61 65 69 -105 c76 -115 127 -200 119 -200 -3 0 -19
21 -35 48 -17 26 -57 72 -88 102 l-57 55 56 -80 c53 -78 98 -160 118 -213 9
-26 8 -26 -6 -7 -28 37 -139 164 -141 162 -2 -1 26 -61 62 -132 64 -131 85
-188 39 -106 -32 55 -96 143 -101 138 -2 -2 16 -48 40 -103 40 -92 106 -280
106 -305 0 -6 -27 44 -61 111 -33 67 -62 120 -64 118 -2 -2 7 -35 21 -73 57
-156 118 -434 144 -645 22 -193 30 -481 30 -1140 1 -1006 16 -1464 64 -1860
11 -89 12 -144 4 -240 -9 -117 -5 -495 8 -795 6 -130 -7 -434 -26 -615 -30
-287 -38 -405 -34 -500 4 -103 4 -104 -10 -57 -19 64 -31 73 -22 18 8 -55 -5
-362 -14 -335 -4 10 -13 51 -19 89 -7 39 -15 77 -18 85 -7 18 -26 -116 -47
-345 -9 -93 -23 -233 -31 -310 -8 -77 -15 -165 -16 -195 l0 -55 -20 54 c-10
30 -22 57 -25 60 -3 3 -4 -59 -2 -138 3 -133 2 -140 -10 -95 -7 27 -17 58 -23
69 -8 17 -8 17 -3 -4 3 -13 3 -96 -1 -185 l-8 -161 -27 95 -27 95 -7 -73 c-4
-41 -5 -115 -2 -165 6 -94 5 -95 -29 -17 -9 21 -13 25 -9 10 3 -14 8 -110 10
-215 l5 -190 -46 135 c-48 143 -69 182 -54 103 24 -122 69 -383 68 -390 0 -5
-32 84 -70 197 -76 228 -80 218 -22 -73 19 -98 33 -183 31 -189 -2 -6 -19 37
-37 96 -18 59 -35 106 -37 103 -3 -2 7 -59 21 -125 15 -67 25 -131 23 -142 -2
-13 -30 41 -73 139 -38 88 -70 159 -72 157 -4 -3 11 -81 56 -291 16 -77 28
-141 26 -144 -5 -5 -5 -7 -56 164 -70 235 -76 221 -24 -55 19 -102 35 -189 34
-195 0 -5 -22 55 -49 135 -50 150 -79 223 -80 204 0 -7 9 -54 19 -106 21 -100
46 -306 38 -314 -2 -2 -20 40 -40 93 -19 54 -51 141 -71 193 l-35 95 0 -70
c-1 -38 4 -99 10 -135 9 -56 20 -93 64 -215 4 -11 -14 18 -40 65 -50 89 -135
214 -141 207 -4 -4 60 -159 116 -282 36 -79 53 -122 47 -115 -9 9 -170 255
-204 310 -18 30 -33 48 -33 39 0 -27 39 -145 95 -289 77 -196 75 -202 -10 -40
-69 132 -109 195 -92 148 12 -33 76 -371 72 -376 -5 -5 -123 191 -144 238 -17
39 -20 42 -20 18 -2 -57 31 -180 74 -283 22 -51 11 -39 -55 63 -29 45 -55 81
-57 78 -2 -2 30 -79 71 -172 42 -92 74 -165 72 -163 -2 2 -31 45 -65 96 -49
76 -138 188 -208 263 -8 8 6 -28 31 -80 24 -52 58 -144 75 -205 17 -60 34
-119 38 -130 7 -22 -67 60 -104 117 -14 21 -28 38 -30 38 -9 0 8 -109 28 -181
11 -39 31 -93 44 -120 14 -27 23 -49 21 -49 -10 0 -198 273 -221 321 -13 30
-25 46 -25 37 0 -36 32 -164 70 -280 21 -67 38 -123 37 -125 -2 -1 -26 33 -55
75 -72 105 -167 240 -175 249 -17 16 21 -71 85 -196 38 -74 66 -133 64 -130
-2 2 -45 60 -95 128 -50 68 -91 121 -91 118 0 -3 9 -27 21 -54 29 -68 109
-306 104 -311 -11 -12 -238 320 -280 410 -32 69 -31 56 5 -90 33 -130 60 -203
122 -326 22 -45 38 -79 35 -76 -3 3 -41 60 -86 128 -44 67 -83 122 -87 122
-18 0 46 -178 91 -252 26 -42 25 -42 -22 12 -26 30 -65 73 -86 95 l-37 40 24
-55 c13 -30 42 -98 64 -150 22 -52 57 -126 76 -163 20 -38 36 -80 36 -95 0
-22 -7 -15 -45 42 -25 38 -62 90 -82 115 -69 85 -306 351 -310 347 -2 -2 23
-45 55 -97 62 -98 183 -321 165 -304 -6 6 -34 46 -63 90 -66 99 -190 260 -190
247 0 -5 30 -76 66 -158 93 -209 145 -337 139 -342 -2 -2 -17 16 -32 41 -62
102 -174 271 -168 252 19 -55 126 -329 144 -371 12 -26 20 -49 18 -50 -10 -10
-196 295 -276 451 -35 70 -39 58 -12 -46 23 -90 81 -224 150 -344 l51 -90 -42
45 c-24 25 -70 74 -102 110 l-59 65 47 -90 47 -90 -116 119 c-81 83 -112 110
-105 90 6 -16 52 -110 101 -209 50 -99 84 -173 76 -165 -8 8 -49 59 -91 113
-42 54 -76 96 -76 93 0 -3 16 -40 36 -83 20 -43 44 -98 55 -123 l19 -45 -23
29 c-61 81 -143 178 -201 241 l-65 70 65 -160 c91 -226 136 -345 132 -357 -2
-5 -42 53 -88 131 -46 77 -85 139 -87 138 -1 -2 13 -45 32 -97 19 -52 33 -96
31 -97 -1 -2 -33 42 -69 98 -37 56 -67 100 -67 97 0 -2 11 -38 25 -78 14 -40
24 -75 22 -76 -1 -2 -33 58 -71 132 -37 75 -70 134 -72 132 -2 -2 10 -39 27
-82 17 -43 43 -138 59 -210 16 -72 34 -146 40 -165 5 -19 8 -36 7 -38 -7 -6
-93 199 -133 317 -24 69 -43 120 -43 113 -1 -6 12 -80 28 -165 30 -154 48
-216 95 -320 14 -32 24 -58 22 -58 -2 0 -31 49 -64 108 -57 103 -98 162 -169
246 -27 34 -25 26 22 -68 45 -89 86 -186 120 -281 4 -11 -16 21 -45 70 -29 50
-68 114 -86 142 -19 29 -47 80 -64 113 -52 103 -41 66 15 -53 54 -113 178
-427 172 -434 -2 -2 -51 93 -107 212 -57 118 -105 213 -107 212 -2 -2 113
-354 182 -557 9 -25 -24 22 -63 90 -20 36 -49 101 -64 145 -31 91 -36 70 -12
-55 8 -45 13 -84 10 -87 -3 -3 -28 44 -56 103 -65 140 -92 194 -85 171 12 -41
46 -220 42 -223 -2 -2 -36 95 -76 216 -71 213 -127 340 -250 568 -27 50 -48
92 -46 92 2 0 54 -75 115 -166 62 -91 114 -164 116 -161 11 11 -38 123 -167
375 -77 151 -135 271 -129 267 9 -6 107 -137 188 -253 17 -26 32 -43 32 -39 0
12 -106 249 -152 342 -47 93 -84 149 -147 224 -25 30 -36 49 -25 43 27 -15
122 -115 188 -199 62 -80 79 -94 43 -35 -13 20 -35 62 -49 93 -41 89 -156 260
-212 313 -47 45 -48 47 -16 30 19 -11 92 -76 162 -145 108 -106 124 -118 101
-80 -98 169 -194 281 -378 440 -137 118 -167 141 -265 197 -47 26 -166 96
-266 155 -264 156 -265 156 -124 47 47 -37 137 -119 200 -184 63 -65 88 -94
56 -65 -90 80 -163 126 -314 197 l-137 64 65 -62 c36 -35 97 -91 135 -126 39
-35 56 -54 39 -43 -49 32 -234 140 -234 137 0 -2 51 -44 113 -93 152 -122 161
-137 31 -55 -60 38 -154 92 -208 121 l-99 52 104 -101 c109 -107 109 -107 -66
17 -104 73 -105 73 -35 -8 103 -117 102 -118 -20 -17 -63 53 -116 95 -118 93
-6 -5 77 -126 111 -162 42 -45 25 -41 -32 5 -25 22 -59 47 -76 58 -25 16 -20
7 25 -48 30 -36 64 -81 74 -100 17 -29 11 -25 -50 28 -38 34 -85 78 -104 99
-19 20 -60 57 -90 82 -30 25 -70 69 -89 97 -18 28 -45 63 -59 78 -54 59 -12
32 101 -64 65 -55 120 -99 122 -97 6 7 -177 235 -248 307 -86 88 -250 225
-330 276 -46 30 -165 89 -147 73 91 -77 249 -218 259 -230 7 -10 -13 0 -45 21
-62 41 -246 115 -375 151 -41 11 -114 34 -162 50 -48 17 -87 29 -87 27 0 -1
27 -22 60 -46 33 -24 60 -45 60 -46 0 -10 -219 97 -262 128 -37 25 -35 16 5
-41 53 -72 52 -74 -5 -43 -29 16 -89 48 -133 72 -44 23 -95 53 -112 67 l-33
24 35 -77 35 -76 -28 18 c-90 59 -204 126 -208 121 -3 -3 25 -30 63 -60 37
-30 77 -65 88 -78 19 -23 19 -23 -15 2 -105 77 -180 128 -180 123 0 -4 21 -36
47 -73 l47 -66 -68 60 c-37 32 -86 80 -109 105 l-40 45 62 -119 63 -119 -42
34 c-91 75 -102 79 -35 14 39 -37 61 -61 50 -52 -24 18 -95 54 -133 67 -25 9
-24 8 9 -22 72 -64 124 -137 59 -82 -15 12 -230 115 -230 110 0 -1 24 -19 53
-39 30 -21 64 -49 78 -64 22 -24 16 -22 -53 16 -43 23 -90 46 -105 51 -32 11
-33 13 52 -57 l38 -32 -59 23 c-89 36 -108 41 -99 25 6 -9 3 -10 -11 -5 -10 5
-32 12 -49 17 l-30 9 37 -35 c49 -47 102 -113 123 -154 l17 -33 -39 30 c-21
17 -83 51 -138 77 l-100 46 60 -62 60 -61 -72 36 c-40 20 -76 36 -80 36 -4 0
15 -23 42 -51 l50 -51 -68 37 c-37 21 -70 35 -73 32 -3 -3 9 -22 27 -43 19
-23 7 -14 -29 20 l-61 60 5 -40 c4 -21 15 -56 25 -76 24 -50 16 -48 -21 4 -35
47 -35 46 -14 -34 8 -33 13 -63 9 -66 -3 -3 -29 18 -58 46 -54 53 -74 65 -63
36 4 -12 2 -15 -9 -10 -20 7 -19 2 10 -84 14 -40 25 -75 25 -77 0 -14 -27 18
-66 78 -25 38 -49 71 -52 73 -4 2 -6 -42 -5 -97 2 -69 0 -95 -7 -82 -5 11 -6
45 -3 77 8 86 -7 91 -29 9 -10 -40 -25 -87 -33 -104 -15 -32 -15 -32 -10 24 2
30 7 71 10 90 3 18 -8 -4 -25 -50 -16 -46 -33 -87 -36 -90 -4 -3 -4 29 -1 72
4 42 5 77 3 77 -2 0 -14 -27 -26 -60 -13 -34 -24 -59 -25 -58 -2 2 3 32 11 68
7 35 12 66 10 67 -1 1 -24 -40 -51 -93 -27 -52 -53 -97 -57 -100 -9 -6 0 54
23 141 10 38 17 71 15 72 -2 2 -19 -27 -39 -64 -40 -76 -47 -66 -17 22 11 32
19 60 17 61 -1 2 -24 -33 -50 -76 -27 -44 -50 -80 -52 -80 -2 0 5 23 16 50 10
28 28 83 38 123 18 64 18 69 3 47 -43 -62 -162 -220 -167 -220 -3 0 10 31 30
69 28 57 80 211 71 211 -1 0 -24 -34 -50 -76 -27 -41 -50 -73 -52 -71 -2 2 7
32 21 67 14 35 25 68 25 73 0 5 -21 -19 -46 -54 -67 -92 -67 -92 -34 0 17 46
30 90 28 98 -2 8 -27 -20 -57 -62 -80 -112 -82 -109 -22 45 14 35 16 48 6 35
-65 -88 -119 -154 -122 -151 -3 2 21 55 52 117 l57 114 -42 -40 c-40 -37 -140
-158 -167 -201 -11 -18 20 74 66 196 l21 55 -111 -115 c-104 -107 -109 -111
-72 -55 22 33 50 80 62 105 l22 45 -36 -40 c-20 -22 -59 -68 -87 -102 -27 -35
-52 -63 -54 -63 -5 0 31 73 61 120 11 19 34 57 49 84 l29 49 -31 -21 c-16 -12
-60 -54 -96 -94 -72 -77 -75 -66 -11 44 19 32 35 61 35 64 0 9 -124 -89 -190
-151 -57 -53 -61 -55 -35 -20 25 34 83 105 160 194 11 13 -21 -6 -72 -43 -51
-36 -95 -66 -98 -66 -4 0 29 41 71 91 48 57 68 87 53 79 -37 -20 -184 -127
-274 -200 l-80 -65 65 79 c71 86 126 137 180 167 26 15 29 18 10 13 -86 -22
-174 -78 -279 -178 l-74 -71 39 60 c21 33 57 84 79 114 22 30 49 66 59 80 19
26 -43 -31 -243 -224 l-104 -100 87 105 c48 58 115 133 148 168 92 94 61 75
-55 -34 -110 -104 -165 -148 -297 -238 l-85 -58 130 133 c72 74 146 152 165
173 34 38 31 37 -54 -22 -50 -34 -149 -110 -220 -170 -195 -161 -343 -272
-260 -196 17 16 55 58 85 94 29 36 71 84 93 108 22 23 35 42 29 42 -7 0 -15
-4 -18 -10 -3 -5 -51 -42 -107 -81 -55 -40 -126 -92 -157 -117 -47 -39 -39
-28 48 66 57 62 107 112 110 112 3 1 33 26 66 56 l59 55 -78 -43 c-81 -45
-244 -169 -381 -292 -66 -59 -74 -64 -47 -29 58 74 152 176 230 251 72 68 65
73 -18 12 -33 -24 -174 -143 -325 -273 -38 -33 -58 -47 -44 -31 14 16 61 69
105 118 63 72 72 86 46 70 -44 -25 -194 -147 -307 -248 -93 -84 -205 -180
-240 -206 -11 -8 16 24 60 71 88 94 191 222 160 199 -11 -8 -40 -31 -65 -51
-25 -20 -87 -64 -139 -99 -52 -35 -115 -81 -140 -104 -25 -23 -39 -32 -31 -21
24 32 121 146 164 194 l41 44 -62 -42 c-34 -23 -88 -63 -120 -89 -137 -112
-156 -127 -146 -107 27 49 229 240 423 398 l35 29 -35 -19 c-252 -137 -320
-181 -562 -367 -107 -82 -134 -99 -110 -70 58 73 237 250 280 279 23 15 40 30
38 32 -11 12 -119 -61 -280 -188 -97 -77 -178 -139 -181 -139 -4 0 45 55 108
123 63 67 132 142 153 167 l39 45 -55 -47 c-30 -26 -111 -88 -180 -139 l-125
-91 90 98 c80 88 84 94 35 53 -30 -25 -109 -87 -175 -137 -66 -50 -135 -105
-152 -122 -59 -55 -35 -19 44 68 69 75 129 132 298 281 28 24 39 38 25 31 -56
-29 -116 -76 -218 -173 -59 -56 -150 -140 -202 -187 l-94 -85 59 75 c50 65 90
113 189 229 19 23 18 22 -16 -3 -21 -16 -77 -73 -125 -129 -73 -83 -168 -172
-313 -291 -22 -18 44 53 148 160 18 19 30 34 27 34 -9 0 -195 -119 -240 -154
-36 -27 -118 -101 -301 -269 l-61 -56 75 112 c40 62 78 121 84 132 25 51 -350
-364 -643 -710 -51 -60 -132 -150 -179 -200 -91 -96 -156 -175 -144 -175 4 0
67 59 141 132 73 73 133 129 133 125 0 -4 -24 -36 -53 -70 -28 -34 -74 -98
-101 -142 -27 -44 -79 -120 -116 -170 -100 -135 -103 -146 -18 -67 60 55 60
56 -16 -73 -32 -55 -89 -150 -125 -212 -36 -61 -67 -111 -68 -109 -4 4 46 215
65 269 10 31 16 54 12 52 -16 -10 -126 -173 -157 -232 -33 -64 -34 -66 -28
-28 8 56 43 161 72 218 56 112 -17 6 -89 -128 -26 -49 -48 -87 -48 -83 0 16
65 188 91 241 16 31 27 57 25 57 -10 0 -148 -195 -175 -246 -16 -32 -30 -56
-31 -52 -1 15 81 231 110 288 17 34 29 64 26 67 -10 10 -78 -52 -118 -106 -25
-35 -38 -47 -33 -31 11 36 84 211 101 240 9 14 -1 7 -21 -15 -58 -65 -127
-182 -173 -295 -49 -121 -49 -99 3 115 33 135 84 296 120 380 l17 40 -22 -20
c-38 -34 -156 -197 -189 -260 -17 -33 -31 -55 -31 -49 0 32 66 227 96 284 l34
64 -61 -59 c-33 -33 -79 -88 -102 -122 -22 -34 -42 -61 -44 -59 -7 7 46 226
62 255 8 17 15 33 15 36 0 15 -56 -61 -86 -118 -33 -61 -33 -62 -27 -22 12 80
54 231 77 280 l25 50 -51 -54 c-67 -72 -121 -146 -158 -212 -34 -63 -36 -62
-14 12 20 65 69 165 136 274 l50 80 -62 -60 c-70 -69 -139 -166 -199 -278 -22
-43 -41 -74 -41 -68 0 19 69 219 89 259 31 61 26 62 -18 1 -63 -89 -103 -159
-128 -223 l-23 -61 5 45 c25 192 68 367 130 527 l34 88 -51 -55 c-58 -63 -103
-130 -138 -210 -13 -30 -27 -59 -32 -64 -12 -15 51 213 77 279 14 32 23 60 21
62 -7 7 -123 -150 -158 -214 -21 -37 -38 -61 -38 -53 0 30 49 227 69 278 27
68 26 73 -5 31 -36 -47 -73 -122 -100 -199 l-23 -65 6 55 c14 147 61 388 85
433 5 10 8 21 5 23 -8 8 -108 -155 -153 -250 -24 -50 -44 -87 -44 -82 0 22 59
229 96 331 5 14 -4 10 -30 -15 -55 -52 -111 -127 -152 -206 -40 -76 -40 -69
-3 79 17 68 28 101 64 192 11 27 -58 -55 -109 -130 -22 -33 -55 -98 -73 -145
-18 -47 -32 -82 -33 -78 0 4 11 61 25 127 30 139 55 217 92 280 59 101 -65
-44 -134 -157 -19 -32 -32 -48 -29 -37 26 94 52 168 72 210 l25 50 -37 -40
c-44 -48 -114 -153 -114 -171 0 -7 -4 -15 -9 -18 -11 -7 3 56 29 133 10 31 17
57 16 58 -7 7 -80 -112 -102 -164 l-25 -58 6 90 c10 144 24 250 40 297 14 40
14 41 -1 23 -25 -31 -76 -144 -95 -210 -16 -54 -18 -57 -18 -24 -2 74 21 256
39 309 10 30 17 56 15 58 -5 6 -48 -70 -71 -127 -31 -75 -30 -45 6 129 16 80
30 152 30 160 0 8 -15 -21 -34 -65 -18 -44 -48 -111 -66 -150 -18 -38 -43
-101 -57 -140 l-24 -70 6 60 c6 60 58 334 71 371 17 49 -54 -70 -84 -141 l-33
-80 6 70 c5 61 15 119 40 230 6 27 3 25 -23 -16 -16 -25 -42 -77 -56 -115
l-26 -69 5 82 c4 45 14 116 24 158 10 41 17 75 15 75 -5 0 -65 -119 -80 -160
-10 -27 -13 -30 -13 -13 -2 44 31 250 54 348 14 55 27 111 30 125 13 53 -70
-140 -96 -225 -17 -54 -28 -79 -28 -62 -1 36 46 352 59 397 27 93 -15 25 -67
-110 -37 -97 -39 -90 -18 79 9 68 14 126 11 128 -4 4 -46 -119 -70 -202 -3
-11 -3 26 0 82 6 117 26 253 49 331 9 30 14 56 12 58 -7 7 -68 -104 -88 -161
-10 -27 -18 -41 -18 -30 -1 17 6 50 34 175 8 36 -34 -55 -56 -120 -16 -48 -18
-51 -18 -23 -1 17 8 105 19 195 11 90 22 186 25 213 l5 50 -22 -40 c-12 -22
-32 -67 -45 -100 l-24 -60 7 105 c3 57 10 127 14 155 4 27 7 52 5 53 -2 2 -13
-16 -24 -40 l-21 -43 3 148 c3 145 3 148 -14 116 -16 -32 -17 -32 -24 -10 -6
21 -2 91 12 186 8 60 -5 38 -26 -46 l-20 -74 0 65 c-1 78 15 222 30 268 18 55
3 47 -20 -10 l-22 -53 7 85 c3 47 3 82 0 79 -3 -3 -14 -41 -25 -85 -11 -43
-20 -66 -20 -51 -1 16 -8 110 -17 210 -9 100 -14 213 -11 250 2 37 3 66 1 64
-2 -2 -13 -28 -23 -58 -17 -46 -20 -50 -20 -24 -1 17 4 70 10 118 6 49 9 91 6
93 -3 3 -14 -21 -26 -53 l-21 -58 5 85 c5 75 17 164 30 225 3 11 -8 -7 -25
-40 -35 -72 -36 -66 -10 60 26 125 25 131 -10 65 -37 -70 -38 -45 -5 86 14 53
23 99 21 101 -5 5 -76 -112 -76 -125 0 -6 -3 -13 -8 -16 -12 -7 6 194 22 241
8 24 13 43 10 43 -2 0 -17 -19 -34 -42 -16 -22 -30 -38 -30 -33 0 4 9 48 21
97 23 99 20 124 -6 53 -30 -78 -33 -59 -9 53 29 131 29 140 -1 77 l-24 -50 6
50 c3 28 16 85 28 128 25 89 17 90 -19 2 -14 -33 -25 -55 -26 -48 0 14 47 273
55 299 4 11 -7 -6 -24 -36 l-30 -55 5 160 c3 88 12 210 20 270 8 61 19 200 24
310 6 110 14 272 19 360 5 88 15 257 21 375 6 118 15 285 19 370 5 85 7 156 6
158 -2 2 -11 -20 -20 -48 -9 -28 -19 -49 -21 -47 -3 3 7 73 21 157 14 84 24
157 23 162 -2 5 -14 -23 -27 -62 -12 -39 -25 -70 -27 -67 -3 2 9 75 26 162 17
86 30 159 28 161 -2 2 -15 -29 -28 -68 -13 -39 -26 -66 -27 -61 -2 5 8 63 22
129 29 140 30 152 4 99 -11 -22 -17 -32 -15 -23 27 93 76 286 75 294 0 5 -22
-34 -49 -86 -27 -52 -49 -91 -49 -87 -1 4 15 71 34 147 19 76 35 143 35 147
-1 4 -19 -26 -41 -67 -22 -41 -37 -66 -34 -55 19 58 74 280 70 283 -2 2 -13
-14 -25 -37 -11 -23 -22 -41 -23 -41 -2 0 12 59 30 132 18 72 31 133 29 135
-2 2 -21 -25 -42 -61 -21 -36 -39 -64 -40 -63 -1 1 9 44 22 96 13 52 22 96 20
98 -2 2 -20 -24 -41 -59 -20 -35 -34 -54 -30 -43 17 52 53 195 50 195 -3 0
-12 -14 -20 -31 -26 -50 -26 -29 1 55 13 43 23 80 21 82 -2 2 -14 -14 -26 -37
-35 -61 -36 -40 -2 47 33 85 34 108 2 47 -39 -74 -19 -19 53 150 22 50 4 39
-30 -19 -14 -24 -28 -44 -30 -44 -6 0 44 109 81 178 19 34 33 62 31 62 -2 0
-30 -35 -62 -77 -32 -43 -62 -82 -67 -88 -5 -5 21 51 58 125 74 149 72 159 -4
31 -28 -46 -51 -82 -51 -80 0 11 74 188 102 242 38 77 24 66 -42 -30 -29 -43
-57 -82 -63 -88 -12 -13 93 197 132 264 45 75 26 57 -54 -53 -38 -52 -71 -93
-73 -91 -6 6 102 208 150 278 56 84 13 45 -65 -58 -33 -44 -64 -84 -69 -90 -5
-5 32 73 81 175 50 102 91 189 91 193 0 4 -31 -38 -70 -95 -66 -98 -151 -204
-118 -148 116 196 213 379 206 386 -3 2 -32 -33 -66 -79 -100 -134 -117 -148
-49 -42 35 55 79 127 97 160 l32 60 -33 -35 c-19 -20 -56 -60 -82 -90 -40 -46
-33 -33 41 80 49 74 101 155 116 180 26 44 25 43 -34 -20 l-61 -65 52 85 c72
116 130 213 137 225 10 20 -16 -11 -91 -110 -42 -55 -95 -120 -117 -145 -33
-36 -24 -19 41 85 45 72 89 141 97 155 8 14 -29 -20 -83 -75 -53 -55 -91 -91
-83 -80 8 11 59 85 112 165 l97 145 -71 -75 -71 -75 109 165 c124 188 137 211
90 155 -73 -87 -77 -86 -15 5 91 135 90 137 -19 25 -95 -98 -89 -84 30 65 33
41 64 82 70 90 13 19 -42 -28 -121 -105 -35 -32 -63 -56 -63 -51 0 12 138 192
194 253 47 51 54 71 12 36 -11 -10 26 33 82 96 56 62 157 182 222 267 163 208
258 306 435 447 83 66 221 191 307 277 87 87 152 148 146 137 -69 -131 -313
-464 -487 -667 l-56 -65 60 52 c155 132 381 390 502 573 31 47 61 90 66 95 22
23 -44 -87 -130 -216 -50 -77 -90 -139 -88 -139 5 0 282 336 358 435 231 303
294 381 394 495 191 217 434 443 628 585 22 16 -32 -45 -120 -136 -340 -350
-580 -678 -736 -1003 -56 -117 -82 -188 -38 -101 252 491 638 947 1071 1267
392 290 823 497 1276 614 144 37 374 79 487 88 68 6 65 5 -75 -34 -521 -147
-989 -354 -1337 -593 -57 -38 -103 -72 -103 -75 0 -2 12 4 28 14 238 156 670
352 1012 457 142 44 359 99 373 94 12 -4 -249 -143 -428 -227 -287 -136 -566
-251 -900 -371 -104 -37 -186 -68 -181 -69 15 0 327 98 529 167 235 79 537
193 728 273 79 33 145 58 147 56 12 -13 -466 -225 -723 -321 -274 -101 -719
-237 -855 -260 -25 -5 -40 -10 -34 -12 15 -5 493 91 919 186 560 124 1619 330
1632 318 2 -2 -25 -10 -59 -16 -112 -21 -658 -159 -858 -216 -247 -71 -603
-190 -768 -256 -122 -50 -358 -162 -376 -179 -4 -5 52 16 125 46 531 218 1075
390 1547 488 179 38 180 31 2 -15 -745 -193 -1423 -456 -1835 -712 -86 -53
-166 -110 -105 -75 564 330 1214 557 1994 698 223 40 252 37 51 -4 -255 -54
-473 -112 -710 -191 -921 -306 -1477 -735 -1790 -1378 -83 -172 -140 -329
-180 -497 -15 -63 -28 -120 -30 -126 -3 -8 -82 -13 -267 -17 -283 -5 -351 -14
-523 -73 -339 -114 -643 -370 -779 -654 -14 -30 -21 -47 -14 -36 118 172 264
307 421 387 67 34 73 32 17 -5 -379 -251 -620 -800 -620 -1414 l0 -114 38 2
c20 1 69 1 107 0 l70 -2 -93 -20 c-51 -11 -91 -22 -90 -24 4 -4 304 15 358 23
l45 6 -70 12 -70 12 87 2 87 1 30 43 c112 163 364 315 606 367 192 40 548 38
895 -6 117 -15 371 -63 415 -79 16 -6 17 -5 5 4 -46 33 -262 103 -470 152
l-125 29 85 -5 c368 -23 994 -165 1324 -301 14 -5 17 -4 12 4 -11 19 -141 91
-240 134 -115 49 -116 50 394 -89 234 -63 481 -127 549 -142 74 -16 128 -33
133 -42 4 -8 31 -69 59 -137 29 -67 53 -121 55 -120 1 2 -15 53 -35 113 -21
61 -41 119 -45 131 l-6 20 97 -17 c216 -38 354 -51 593 -56 135 -3 260 -1 278
3 l32 9 -55 119 c-68 148 -147 289 -243 431 -73 110 -74 110 -27 65 107 -103
227 -275 337 -485 37 -71 68 -127 68 -123 0 3 -21 66 -46 138 -84 243 -203
483 -318 644 -31 42 -53 76 -51 76 2 0 42 -47 89 -104 147 -178 286 -386 413
-616 34 -63 63 -112 63 -108 0 11 -116 338 -157 443 -49 124 -142 319 -186
388 -20 31 -35 57 -32 57 9 0 217 -285 272 -373 31 -51 88 -150 125 -222 37
-71 68 -126 68 -121 0 16 -172 441 -212 521 -22 44 -36 76 -30 70 41 -42 230
-401 292 -557 13 -32 25 -56 27 -55 1 2 -33 112 -76 245 -43 133 -77 242 -75
242 6 0 128 -248 180 -367 26 -62 50 -111 51 -109 5 4 -77 268 -114 366 -100
268 -231 510 -384 711 l-58 77 32 41 c17 22 34 41 38 41 10 0 87 -126 168
-275 147 -269 274 -597 326 -840 l25 -120 -5 115 c-14 319 -148 662 -388 990
-38 52 -81 107 -94 121 l-25 27 90 103 c114 133 319 331 447 435 311 251 594
409 1005 559 516 188 991 396 1560 680 239 120 476 243 590 307 71 40 -7 -16
-144 -102 -480 -306 -1035 -608 -1481 -805 -160 -71 -496 -206 -608 -246 -38
-13 -65 -25 -60 -26 15 -5 581 183 818 272 1157 435 2038 938 2945 1684 537
442 969 832 1336 1204 293 296 299 301 95 67 -419 -480 -928 -958 -1437 -1351
-238 -184 -223 -172 -194 -158 92 44 440 275 643 428 498 374 1027 893 1400
1374 86 111 94 118 143 133 94 27 258 39 349 24z m-685 -193 c0 -2 -10 -12
-22 -23 l-23 -19 19 23 c18 21 26 27 26 19z m-14203 -794 c-3 -10 -5 -2 -5 17
0 19 2 27 5 18 2 -10 2 -26 0 -35z m6840 -819 c-3 -3 -12 -4 -19 -1 -8 3 -5 6
6 6 11 1 17 -2 13 -5z m180 -90 c-3 -3 -12 -4 -19 -1 -8 3 -5 6 6 6 11 1 17
-2 13 -5z m-64 -11 c-7 -2 -19 -2 -25 0 -7 3 -2 5 12 5 14 0 19 -2 13 -5z
m804 -279 c-3 -3 -12 -4 -19 -1 -8 3 -5 6 6 6 11 1 17 -2 13 -5z m-228 -43
c-928 -190 -1768 -520 -2379 -935 -286 -194 -595 -483 -754 -706 -6 -8 50 48
124 124 435 448 925 772 1439 950 57 20 106 35 107 33 2 -2 -31 -19 -74 -37
-118 -51 -424 -205 -542 -273 -504 -288 -935 -669 -1131 -999 -31 -52 -59 -88
-68 -88 -30 0 -61 12 -61 24 1 27 154 321 220 421 423 639 1150 1091 2170
1349 351 89 867 173 1075 174 50 0 30 -6 -126 -37z m-1804 -239 c-264 -137
-505 -297 -710 -473 -114 -97 -320 -309 -408 -419 -159 -198 -331 -497 -404
-700 l-31 -85 -46 -3 c-25 -2 -46 1 -46 6 0 6 18 61 39 124 109 315 241 518
497 768 265 258 564 501 786 639 171 108 427 229 483 230 6 0 -66 -39 -160
-87z m1015 -222 c-14 -4 -110 -36 -215 -70 -760 -248 -1439 -619 -1840 -1005
l-70 -67 70 60 c494 421 1253 755 2235 985 234 55 317 69 165 27 -795 -218
-1492 -560 -1985 -976 -112 -94 -137 -126 -35 -43 373 300 849 550 1368 718
87 28 164 51 170 50 7 0 -62 -26 -153 -58 -497 -174 -920 -396 -1280 -672
-136 -104 -294 -246 -382 -344 l-63 -69 125 104 c546 454 1169 793 1735 946
l89 24 -85 -88 c-106 -108 -151 -163 -223 -275 -146 -224 -256 -503 -312 -790
-10 -54 -21 -86 -28 -84 -6 2 -22 7 -36 11 -22 6 -21 4 8 -14 34 -23 36 -31
26 -116 l-6 -51 -123 48 c-334 132 -912 239 -1492 275 -62 3 -113 10 -113 14
0 19 161 220 257 321 451 469 1159 848 2103 1123 78 23 148 35 90 16z m487
-36 c-3 -3 -12 -4 -19 -1 -8 3 -5 6 6 6 11 1 17 -2 13 -5z m1118 -254 c-11
-10 -81 -49 -155 -85 -608 -299 -1096 -759 -1344 -1267 l-62 -127 -75 72 c-67
65 -68 66 -19 12 98 -106 93 -97 75 -143 l-17 -41 -54 44 c-99 81 -359 244
-370 232 -2 -2 35 -35 83 -73 48 -37 138 -118 201 -179 120 -116 146 -161 57
-102 -65 44 -223 135 -316 183 -41 21 -75 38 -77 39 -7 5 71 283 103 370 98
263 245 510 407 685 38 42 39 42 14 7 -128 -176 -209 -316 -289 -497 -44 -101
-127 -331 -127 -353 0 -6 31 52 69 129 38 76 93 174 123 216 291 420 781 717
1391 842 113 24 308 52 377 55 24 1 24 1 5 -19z m1160 -110 c-11 -5 -119 -45
-240 -89 -248 -89 -465 -175 -635 -251 -147 -65 -132 -51 40 39 236 122 462
210 725 280 114 31 144 36 110 21z m-895 -180 c-8 -5 -19 -10 -25 -10 -5 0 -3
5 5 10 8 5 20 10 25 10 6 0 3 -5 -5 -10z m-105 -48 c-16 -10 -77 -45 -135 -76
-485 -267 -926 -661 -1204 -1077 l-72 -109 -32 33 c-18 18 -32 37 -32 42 1 17
142 200 242 312 271 304 645 582 1103 820 130 67 200 97 130 55z m-755 -236
c0 -2 -30 -21 -66 -41 -263 -147 -561 -461 -725 -762 -18 -35 -36 -63 -40 -63
-3 0 -14 9 -24 20 -17 19 -16 22 30 102 168 291 425 538 728 699 97 51 97 51
97 45z m615 -14 c-6 -5 -41 -30 -80 -57 -361 -251 -723 -627 -990 -1029 l-59
-89 -52 59 c-29 33 -53 62 -54 65 0 4 33 49 73 102 223 293 462 515 787 732
165 110 425 260 375 217z m-2033 -159 c-38 -70 -127 -378 -152 -523 -21 -127
-17 -119 -51 -107 -16 6 -29 15 -29 18 0 23 77 268 114 362 53 137 117 279
123 273 3 -2 0 -13 -5 -23z m-184 -750 c-3 -29 -7 -55 -10 -58 -3 -3 -21 2
-40 11 -38 18 -38 11 -13 122 l5 22 31 -22 c29 -22 31 -26 27 -75z m746 49
c15 -18 15 -22 -5 -66 -20 -46 -21 -47 -40 -30 -23 21 -24 33 -2 79 19 40 24
42 47 17z m-615 -91 c10 -7 12 -19 5 -54 -8 -40 -11 -44 -26 -33 -13 9 -15 22
-11 54 6 44 9 47 32 33z m561 -23 c14 -18 16 -28 8 -51 -11 -30 -34 -33 -51
-6 -7 12 -7 26 3 48 15 37 17 37 40 9z m-428 -85 c142 -120 258 -225 258 -235
0 -4 -55 30 -122 76 -68 45 -152 100 -188 121 -36 21 -66 39 -68 40 -4 3 10
85 14 85 2 0 49 -39 106 -87z m623 37 c28 -40 28 -42 12 -75 -9 -19 -20 -35
-25 -35 -4 0 -23 15 -41 34 l-33 34 24 41 c12 22 26 41 29 41 4 0 19 -18 34
-40z m-61 -119 c20 -28 25 -44 19 -55 -7 -14 -15 -10 -47 23 -33 34 -36 41
-26 60 13 26 19 23 54 -28z m171 -31 c47 -69 48 -71 34 -101 l-15 -32 -58 66
-58 66 22 36 c12 19 23 35 24 35 2 0 25 -32 51 -70z m-375 45 c11 -13 10 -14
-4 -9 -9 3 -16 10 -16 15 0 13 6 11 20 -6z m602 -100 c61 -102 139 -272 197
-427 28 -75 51 -140 51 -145 0 -4 -30 48 -66 117 -84 160 -118 217 -220 366
l-82 121 26 37 c31 43 27 46 94 -69z m-283 -80 c37 -56 43 -70 21 -45 -74 82
-101 120 -95 130 9 15 11 12 74 -85z m218 -139 c39 -79 36 -77 -66 46 -71 87
-72 88 -55 113 l17 26 34 -57 c19 -32 50 -89 70 -128z m-596 117 c13 -16 12
-17 -3 -4 -10 7 -18 15 -18 17 0 8 8 3 21 -13z m-2614 -639 c-3 -3 -12 -4 -19
-1 -8 3 -5 6 6 6 11 1 17 -2 13 -5z m-3763 -1642 c-15 -13 -28 -21 -30 -19
-11 10 -44 192 -49 267 l-6 85 56 -155 55 -155 -26 -23z m113 -196 c13 -31 73
-170 134 -309 255 -577 387 -982 455 -1389 l27 -159 -51 -107 c-199 -419 -255
-770 -173 -1087 l18 -70 -40 -59 c-35 -51 -127 -235 -127 -252 0 -3 20 20 44
52 41 55 163 181 154 159 -2 -5 -16 -37 -31 -70 -60 -128 -92 -277 -101 -475
l-5 -105 14 60 c15 66 55 179 61 173 2 -2 -3 -54 -11 -115 -8 -61 -22 -189
-30 -284 -9 -96 -23 -221 -31 -278 -8 -57 -13 -105 -11 -107 6 -7 45 101 61
171 22 92 19 56 -11 -128 -15 -92 -30 -164 -34 -160 -5 5 -27 53 -50 108 -229
551 -272 824 -235 1485 23 409 16 481 -79 805 -85 290 -126 468 -210 920 -31
165 -78 387 -105 493 -56 214 -60 273 -30 359 38 109 151 262 254 347 45 37
48 37 62 20 14 -18 14 -17 4 4 -9 19 -8 26 12 42 13 11 27 18 33 16 5 -1 20
-28 32 -60z m17880 -197 c22 -62 27 -96 31 -214 3 -118 0 -164 -22 -296 -14
-85 -37 -267 -51 -405 -30 -291 -51 -424 -104 -664 -57 -254 -83 -449 -94
-690 l-2 -54 -48 59 c-56 72 -126 203 -157 300 -17 51 -25 65 -30 51 -10 -29
-31 241 -30 399 0 77 4 167 10 200 5 33 10 65 10 70 1 6 25 -53 54 -130 30
-77 78 -198 109 -269 54 -130 55 -130 61 -90 11 71 65 625 76 794 6 91 22 269
35 395 13 127 27 264 30 305 10 108 71 338 86 323 6 -6 22 -43 36 -84z
m-17220 -1901 c-3 -8 -6 -5 -6 6 -1 11 2 17 5 13 3 -3 4 -12 1 -19z m70 -90
c-2 -13 -4 -5 -4 17 -1 22 1 32 4 23 2 -10 2 -28 0 -40z m82 40 c-1 -7 -5 -24
-9 -38 -7 -22 -8 -21 -9 13 -1 20 4 37 9 37 6 0 10 -6 9 -12z m16829 -445 c-3
-13 -10 -6 -26 24 -29 55 -28 61 4 24 14 -17 24 -39 22 -48z m-17261 -1575
c-3 -8 -6 -5 -6 6 -1 11 2 17 5 13 3 -3 4 -12 1 -19z m82 -114 c-46 -115 -67
-194 -81 -305 l-12 -99 -23 56 c-28 64 -29 59 42 215 29 64 63 147 76 185 15
44 25 61 27 48 2 -12 -11 -57 -29 -100z m-30 -429 c-12 -55 -29 -83 -29 -48 0
22 32 114 38 109 2 -3 -2 -30 -9 -61z m1138 -1657 c-3 -7 -5 -2 -5 12 0 14 2
19 5 13 2 -7 2 -19 0 -25z m-900 -725 c-3 -10 -5 -4 -5 12 0 17 2 24 5 18 2
-7 2 -21 0 -30z m8459 -364 c-13 -41 -40 -112 -60 -158 -20 -46 -35 -85 -34
-86 2 -2 32 51 68 117 39 72 66 113 68 102 1 -11 -4 -55 -12 -99 -7 -44 -12
-81 -11 -83 2 -2 11 21 20 50 20 62 87 219 91 215 2 -1 -5 -75 -15 -162 -11
-88 -18 -161 -16 -163 3 -3 56 177 82 282 l18 68 10 -128 11 -129 14 95 c8 52
16 84 17 70 26 -215 40 -235 43 -60 l2 95 14 -79 c20 -109 45 -173 94 -246 23
-34 43 -60 45 -58 2 2 -1 61 -6 132 -6 71 -8 136 -6 145 1 9 13 -15 26 -54 13
-38 42 -106 65 -150 l41 -80 7 113 c3 63 9 116 12 119 3 4 6 -3 6 -14 0 -31
159 -343 176 -343 1 0 -6 25 -16 55 -18 52 -44 204 -37 211 4 4 157 -309 157
-320 0 -3 -13 -6 -30 -6 -16 0 -30 -4 -30 -10 0 -5 17 -10 39 -10 38 0 38 0
74 -78 19 -42 38 -93 42 -113 l7 -36 -107 -7 c-58 -4 -170 -21 -248 -37 -268
-55 -367 -57 -712 -18 -268 31 -422 34 -660 14 -115 -9 -222 -15 -236 -14 -27
4 -26 4 52 134 44 72 89 156 101 188 11 31 22 56 24 54 2 -1 -7 -44 -19 -95
-13 -51 -22 -92 -21 -92 1 0 16 24 33 53 36 61 36 58 12 -45 -10 -43 -16 -78
-12 -78 3 0 31 51 61 113 69 142 125 235 115 192 -3 -16 -18 -57 -31 -90 -14
-33 -34 -82 -45 -110 l-21 -50 27 25 c42 40 272 340 358 467 43 65 76 107 72
93 -10 -36 -84 -192 -133 -280 l-42 -75 36 40 c55 61 167 213 203 275 24 42
30 48 25 25 -23 -104 -107 -270 -185 -369 -30 -37 -21 -30 36 28 78 80 179
225 295 423 36 60 66 109 67 108 2 0 -8 -35 -21 -76z m959 -445 c29 -94 29
-94 11 -94 -10 0 -19 20 -26 58 -11 55 -26 115 -36 150 -3 9 2 6 10 -8 9 -14
27 -61 41 -106z m429 -79 c3 -8 1 -15 -4 -15 -6 0 -10 7 -10 15 0 8 2 15 4 15
2 0 6 -7 10 -15z m-2594 -185 c-11 -80 -20 -146 -20 -147 0 -8 -70 -1 -70 6 0
5 20 60 44 123 25 62 48 126 51 141 15 59 13 16 -5 -123z m2233 26 c33 -113
33 -116 2 -116 -14 0 -25 2 -25 4 0 5 -29 166 -35 193 -4 17 -1 20 13 16 14
-3 26 -30 45 -97z m-2048 -6 c-49 -185 -43 -170 -75 -170 -28 0 -29 1 -19 28
12 33 112 232 115 229 1 -1 -8 -40 -21 -87z m2170 -3 c14 -46 25 -88 25 -95 0
-7 -13 -12 -29 -12 l-30 0 -3 95 c-2 52 0 95 4 95 4 0 19 -37 33 -83z m-2552
-67 c-7 -69 -10 -75 -32 -78 -22 -4 -23 -2 -17 35 4 21 17 70 29 108 18 58 22
65 24 40 2 -16 0 -64 -4 -105z m2670 55 c22 -97 22 -95 -13 -95 l-30 0 0 85
c0 65 3 85 13 85 9 0 20 -27 30 -75z m79 -5 c23 -81 23 -100 1 -100 -33 0 -40
15 -47 93 -6 71 -5 78 10 75 12 -2 23 -24 36 -68z m-2835 -32 c-6 -55 -13 -78
-23 -78 -8 0 -14 8 -14 18 0 19 40 145 45 140 1 -2 -2 -38 -8 -80z m2921 73
c7 -4 24 -38 38 -75 l24 -66 -55 0 -55 0 0 75 c0 65 2 75 18 75 9 0 23 -4 30
-9z m-2998 -88 c0 -23 -4 -33 -9 -27 -9 8 -4 64 5 64 2 0 4 -17 4 -37z m408
-52 c-6 -28 -15 -51 -19 -51 -5 0 -2 21 6 48 8 26 15 51 15 56 0 5 2 7 5 4 3
-3 0 -28 -7 -57z m-1357 -20 c-13 -48 -23 -66 -39 -72 -12 -5 -22 -6 -22 -3 0
9 72 145 76 142 1 -2 -5 -32 -15 -67z m4246 3 c-13 -13 -23 7 -19 38 l6 33 9
-33 c6 -18 7 -35 4 -38z m-107 21 c0 -8 -4 -15 -10 -15 -5 0 -7 7 -4 15 4 8 8
15 10 15 2 0 4 -7 4 -15z m-4034 -53 c-11 -10 -14 3 -8 33 l7 30 3 -28 c2 -16
1 -31 -2 -35z m91 36 c-3 -8 -6 -5 -6 6 -1 11 2 17 5 13 3 -3 4 -12 1 -19z
m-400 -55 c-9 -57 -12 -63 -34 -63 -22 0 -23 1 -10 28 8 15 22 44 32 65 10 21
19 36 20 35 2 -2 -2 -31 -8 -65z m101 7 c-11 -46 -23 -68 -33 -58 -3 2 4 28
16 57 26 61 32 62 17 1z m-444 -142 c-3 -20 -1 -45 4 -55 6 -10 22 -85 37
-168 15 -82 36 -175 46 -205 l19 -55 -5 45 c-5 47 -8 194 -6 293 1 50 3 57 21
57 14 0 20 -7 20 -24 0 -41 38 -248 57 -311 l19 -60 -4 107 c-4 102 11 261 27
287 4 6 25 15 46 18 l38 6 -5 -94 c-4 -52 -3 -114 2 -139 l7 -45 2 60 c1 58
18 186 26 193 2 2 17 -4 34 -14 26 -15 31 -25 32 -59 l2 -40 6 37 6 37 52 -30
c49 -28 53 -33 65 -87 l13 -57 3 48 c2 26 5 47 8 47 2 0 75 -35 162 -79 184
-92 345 -163 503 -225 109 -42 330 -116 346 -116 5 0 -82 48 -192 106 -227
120 -361 205 -370 235 -9 28 17 52 79 73 27 9 53 16 57 16 4 0 10 -17 15 -37
l8 -38 5 40 c6 37 9 40 46 47 57 10 245 22 345 23 l85 0 6 -45 6 -45 1 49 2
49 218 -6 c240 -7 408 -23 642 -61 281 -46 353 -51 655 -50 318 0 377 6 807
74 399 62 500 73 683 74 l170 1 5 -80 5 -80 18 76 c16 67 21 76 37 72 33 -9
43 -30 37 -81 -5 -44 -11 -53 -91 -128 -97 -92 -214 -178 -378 -277 -63 -38
-100 -65 -83 -61 60 14 323 108 465 165 79 32 146 57 148 55 2 -2 -6 -24 -18
-48 -20 -41 -20 -42 -1 -18 11 14 28 39 38 57 11 22 33 38 65 52 51 21 54 19
38 -25 -18 -46 -3 -38 26 14 18 33 40 56 62 67 19 9 36 14 39 12 2 -3 -3 -22
-12 -42 -23 -57 -13 -51 21 11 23 44 39 61 77 80 56 29 58 24 23 -71 -13 -36
-22 -65 -19 -65 2 0 23 42 47 93 37 79 48 95 80 110 20 9 39 17 43 17 3 0 3
-53 1 -117 l-6 -117 26 49 c14 28 42 95 63 149 20 54 45 103 54 109 17 9 17 1
13 -117 -3 -69 -4 -125 -3 -124 2 2 17 61 34 131 17 71 35 136 40 145 6 10 7
-38 4 -124 -5 -129 1 -224 13 -211 3 3 12 50 20 105 8 55 23 128 33 163 17 57
19 61 26 37 4 -14 5 -121 3 -236 l-3 -210 53 130 c29 72 66 178 81 237 l28
106 7 -95 c9 -109 -3 -226 -39 -380 -13 -58 -27 -116 -30 -130 -3 -14 6 -2 20
26 13 27 48 138 76 245 28 107 53 196 56 199 14 15 -28 -232 -68 -395 -39
-161 -39 -159 -30 -149 28 31 181 437 181 480 0 7 5 14 11 14 6 0 8 -11 5 -27
-9 -52 -18 -413 -9 -413 4 0 18 37 30 83 13 45 34 120 48 167 14 47 32 119 39
160 16 92 23 76 35 -79 10 -122 1 -264 -23 -366 -8 -33 -13 -61 -12 -63 2 -1
24 39 50 90 61 123 79 197 80 335 1 61 4 109 8 107 25 -15 33 -89 32 -289 -1
-115 2 -201 6 -190 4 12 22 88 39 170 18 82 34 151 36 154 12 12 3 -114 -16
-210 -11 -60 -19 -121 -17 -136 4 -27 5 -26 26 18 31 66 52 153 59 243 5 67 8
76 16 55 16 -37 11 -234 -7 -312 -24 -100 -19 -123 11 -57 29 64 52 164 54
235 l1 50 14 -60 c18 -81 17 -237 -1 -326 -9 -40 -13 -74 -11 -77 9 -9 47 135
59 228 l14 95 11 -70 c6 -38 15 -113 20 -165 l9 -95 3 100 c2 55 2 116 1 135
-6 84 11 8 39 -171 17 -106 34 -197 39 -202 26 -26 19 205 -9 303 -19 66 -3
38 39 -66 49 -123 81 -240 81 -298 0 -23 4 -52 8 -66 5 -18 8 -7 12 45 l5 70
25 -75 c22 -67 25 -91 24 -220 0 -107 -6 -172 -22 -249 -12 -58 -20 -107 -17
-109 3 -3 16 20 30 50 36 78 64 218 65 318 l1 85 34 -105 c28 -85 34 -122 35
-195 1 -49 7 -162 14 -250 7 -88 12 -162 10 -163 -1 -2 -14 18 -27 45 -30 59
-116 177 -124 169 -9 -8 17 -163 38 -230 26 -86 24 -89 -16 -21 -20 33 -52 78
-71 100 -43 49 -40 34 16 -100 21 -49 41 -108 45 -130 6 -40 6 -40 -28 21 -18
34 -47 80 -63 101 -39 53 -114 138 -114 129 0 -4 13 -44 29 -89 24 -69 71
-266 71 -300 0 -5 -14 17 -31 49 -55 103 -110 176 -206 274 l-94 95 26 -60
c26 -61 61 -123 154 -275 l52 -85 -63 70 c-89 99 -197 205 -209 205 -6 0 3
-17 19 -37 45 -58 95 -141 130 -215 17 -38 30 -68 28 -68 -1 0 -20 25 -40 55
-46 66 -159 174 -244 233 -34 24 -62 41 -62 38 0 -4 45 -85 100 -181 132 -230
138 -249 53 -156 -59 65 -312 266 -321 256 -5 -4 69 -115 113 -170 57 -72 50
-71 -34 5 -116 104 -158 140 -165 140 -22 0 59 -130 138 -219 101 -115 64
-104 -70 21 -100 93 -155 138 -172 138 -6 0 16 -52 49 -115 33 -63 56 -115 50
-115 -5 0 -40 34 -78 75 -37 42 -84 87 -104 100 -34 24 -79 34 -79 17 0 -4 19
-39 43 -77 55 -90 117 -201 117 -210 0 -4 -39 33 -86 84 -47 50 -90 91 -95 91
-9 0 87 -196 137 -280 32 -54 25 -47 -50 47 -81 102 -158 157 -140 101 3 -13
32 -62 64 -110 49 -74 91 -166 125 -277 8 -26 -54 38 -215 219 -51 58 -97 109
-102 115 -4 5 19 -58 52 -140 64 -156 83 -222 70 -230 -16 -10 -75 63 -124
152 -49 87 -82 133 -97 133 -5 0 -4 -12 2 -26 25 -66 87 -283 93 -324 6 -39 3
-36 -17 25 -26 78 -126 327 -135 335 -2 3 -2 -11 2 -30 14 -68 36 -265 35
-310 0 -33 -11 0 -39 129 -22 96 -42 177 -46 180 -11 10 4 -224 21 -334 15
-103 19 -152 10 -143 -3 3 -19 83 -35 179 -16 96 -39 210 -52 254 l-23 80 -6
-115 c-13 -243 -11 -304 16 -387 51 -163 -30 12 -119 258 -9 25 -23 54 -31 65
-9 11 -5 -9 10 -51 33 -88 107 -336 103 -341 -2 -1 -42 45 -88 103 -134 166
-139 172 -140 147 0 -21 30 -86 65 -139 l20 -30 -40 30 c-22 16 -66 54 -99 84
l-59 56 29 -50 c15 -27 53 -88 83 -135 l54 -84 -49 41 c-27 23 -71 65 -99 93
-48 50 -102 87 -112 77 -8 -9 24 -72 97 -193 40 -65 74 -123 77 -129 7 -14
-101 97 -169 175 l-58 65 74 -155 c40 -85 77 -166 81 -180 l8 -25 -23 20 c-12
11 -52 63 -88 115 -86 124 -129 177 -155 191 -21 12 -21 11 2 -22 47 -73 181
-369 181 -402 0 -17 -57 61 -167 226 -94 141 -133 194 -102 136 19 -36 129
-332 125 -336 -6 -6 -37 42 -84 127 -37 69 -112 182 -112 170 0 -3 14 -39 31
-80 33 -82 73 -227 83 -305 l7 -50 -44 90 c-24 50 -75 131 -112 180 -37 50
-94 135 -127 190 -70 119 -68 107 29 -174 41 -118 72 -222 71 -230 -2 -9 -27
40 -56 109 -54 129 -89 196 -98 187 -8 -8 14 -107 47 -216 30 -98 37 -139 19
-111 -5 8 -33 70 -61 138 -29 67 -54 120 -56 118 -3 -3 0 -20 6 -38 12 -38 51
-259 51 -291 0 -13 -17 12 -40 58 -21 44 -68 118 -105 165 -36 47 -88 117
-116 155 -28 39 -48 59 -43 45 34 -115 94 -336 94 -349 -1 -31 -39 33 -101
169 -96 212 -99 200 -23 -98 24 -95 44 -178 44 -185 0 -7 -22 33 -49 89 -47
99 -128 229 -117 189 9 -33 34 -196 41 -260 l6 -60 -25 56 c-14 31 -58 112
-98 180 -39 68 -82 149 -95 179 -12 30 -23 48 -23 39 0 -22 34 -188 60 -288
11 -44 20 -90 19 -103 -1 -35 -29 33 -75 184 -21 70 -40 125 -42 123 -2 -2 6
-58 17 -126 12 -67 20 -124 18 -126 -3 -3 -43 126 -76 247 -9 35 -9 34 -12
-20 -2 -30 -2 -70 -1 -89 1 -19 0 -32 -2 -30 -2 2 -29 62 -60 133 -52 119
-114 232 -122 223 -2 -2 0 -53 5 -113 5 -60 5 -161 0 -224 -4 -63 -9 -131 -9
-150 l-2 -35 -9 31 c-5 18 -24 125 -43 239 -19 114 -37 210 -40 213 -3 3 -6
-109 -6 -248 0 -160 -4 -250 -9 -244 -15 14 -40 120 -51 214 -5 47 -13 112
-17 145 l-7 60 -7 -95 c-9 -113 -32 -228 -49 -243 -10 -10 -12 22 -8 148 5
185 -3 275 -15 160 -10 -107 -57 -349 -69 -360 -7 -7 -9 40 -5 160 l5 170 -18
-80 c-22 -98 -74 -236 -101 -267 l-19 -23 4 25 c3 14 10 48 16 75 16 75 60
348 57 352 -6 6 -147 -356 -177 -457 -43 -141 -42 -139 -47 -117 -10 39 19
221 66 422 27 116 48 211 46 213 -1 2 -24 -38 -49 -88 -74 -142 -166 -442
-166 -540 0 -16 -4 -30 -10 -30 -5 0 -10 5 -10 10 0 24 -41 434 -43 437 -2 1
-11 -50 -20 -115 -42 -282 -50 -332 -57 -332 -9 0 -16 69 -32 320 -14 217 -17
214 -43 -38 -9 -85 -21 -177 -28 -205 l-12 -52 -6 120 c-6 111 -26 264 -47
360 -6 27 -7 1 -4 -81 3 -66 1 -170 -3 -230 -10 -131 -12 -125 -50 181 -15
116 -27 217 -29 225 -1 8 -7 -66 -14 -165 -14 -188 -29 -323 -40 -339 -10 -16
-21 42 -28 142 -4 50 -11 92 -15 92 -5 0 -9 -12 -9 -27 0 -16 -11 -80 -24
-143 l-24 -115 -1 73 c-1 67 -29 343 -36 350 -1 1 -6 -30 -9 -70 -13 -129 -55
-308 -78 -333 -5 -6 -7 58 -4 165 l6 175 -29 -135 c-58 -274 -71 -286 -72 -67
l-1 152 -15 -55 c-8 -30 -25 -99 -37 -153 l-22 -98 3 203 c2 200 2 202 -13
143 -68 -262 -123 -420 -123 -355 0 14 11 102 24 195 14 94 25 175 24 180 -1
27 -43 -102 -75 -231 -20 -80 -39 -142 -42 -140 -9 10 -1 164 12 243 8 43 13
79 11 81 -3 4 -40 -81 -92 -213 l-43 -110 5 150 c3 83 8 170 10 195 3 32 -11
-1 -47 -110 -28 -85 -52 -157 -54 -159 -22 -25 9 173 46 290 16 51 28 94 27
96 -2 1 -37 -60 -80 -135 -42 -75 -77 -134 -77 -131 0 3 13 63 30 134 16 71
28 130 26 132 -1 1 -22 -32 -45 -75 -70 -125 -174 -302 -176 -300 -2 2 6 37
16 78 18 73 59 322 54 328 -4 5 -79 -133 -157 -288 -79 -157 -79 -137 2 106
32 95 57 174 55 174 -8 0 -68 -94 -111 -173 -24 -45 -44 -75 -44 -66 0 31 39
168 60 209 12 23 19 44 17 46 -6 7 -41 -50 -115 -191 -35 -66 -61 -111 -57
-100 3 11 23 76 45 145 63 205 95 282 176 418 22 37 -95 -85 -145 -150 -22
-29 -67 -98 -100 -153 -34 -54 -61 -94 -61 -87 0 6 47 105 105 219 58 114 105
210 105 212 0 25 -169 -188 -265 -334 -41 -63 -77 -115 -80 -115 -19 0 117
280 189 388 41 61 50 79 33 71 -41 -23 -225 -214 -267 -279 -23 -36 -39 -54
-35 -40 14 48 104 217 139 263 35 46 35 47 9 30 -92 -57 -200 -155 -321 -288
l-73 -80 37 65 c21 36 76 124 124 195 47 72 90 137 95 145 4 8 -37 -28 -91
-81 -84 -81 -204 -188 -278 -248 -11 -9 12 23 51 71 80 98 149 206 138 216 -9
9 -102 -92 -238 -255 -55 -68 -103 -121 -105 -119 -2 2 7 24 19 48 54 106 173
271 309 428 l65 74 -85 -64 c-154 -117 -257 -209 -325 -289 -94 -112 -119
-118 -69 -18 46 91 137 219 207 293 77 82 85 104 29 75 -71 -36 -152 -112
-258 -242 -141 -173 -147 -176 -85 -44 52 111 89 163 191 269 58 61 76 84 55
73 -52 -27 -193 -146 -247 -209 -96 -110 -148 -163 -148 -151 0 6 22 40 48 75
27 35 68 92 92 127 23 35 67 93 97 128 30 36 53 66 51 69 -8 7 -92 -52 -232
-164 -77 -62 -142 -110 -144 -107 -2 2 39 50 92 107 52 56 94 104 91 106 -2 2
-61 -44 -131 -104 -72 -62 -121 -97 -114 -83 18 34 113 151 190 234 106 114
112 124 50 80 -79 -55 -155 -118 -234 -194 -48 -45 -64 -57 -52 -36 40 67 137
185 236 289 58 61 92 101 75 89 -49 -34 -292 -290 -401 -422 -10 -11 61 171
82 213 35 70 87 138 142 187 l47 41 -55 -27 c-63 -32 -128 -75 -221 -151 -36
-30 -70 -54 -74 -54 -4 0 46 57 111 127 l119 127 -75 -51 c-41 -28 -110 -76
-154 -107 -43 -31 -83 -56 -89 -56 -7 0 36 48 93 108 58 59 117 120 130 136
l25 29 -50 -28 c-76 -44 -135 -85 -184 -130 -85 -78 0 33 199 257 l55 62 -50
-34 c-94 -63 -170 -125 -252 -204 -46 -43 -83 -75 -83 -71 0 19 136 191 224
282 54 57 96 103 92 103 -14 0 -186 -110 -277 -177 -152 -112 -153 -104 -6 45
75 77 137 143 137 146 0 15 -190 -126 -267 -198 -18 -16 -33 -27 -33 -22 0 13
81 127 137 193 29 34 50 63 46 63 -8 0 -113 -91 -252 -217 l-69 -63 53 100
c62 118 103 170 184 236 33 27 58 50 56 52 -2 2 -36 -12 -77 -31 -63 -29 -112
-62 -226 -151 -24 -19 -24 -19 -14 0 16 30 161 166 232 218 81 60 83 61 40 43
-103 -44 -157 -71 -207 -103 -30 -19 -57 -33 -59 -31 -8 7 187 192 241 229 31
21 54 38 51 38 -13 0 -173 -84 -216 -113 -25 -17 -79 -61 -120 -97 -60 -52
-70 -58 -50 -30 49 69 166 184 242 237 79 55 98 73 78 73 -20 0 -144 -67 -238
-129 -51 -34 -96 -61 -99 -61 -4 0 18 26 48 58 52 53 146 162 179 207 14 18
13 18 -15 -2 -16 -12 -56 -44 -88 -72 -74 -65 -127 -105 -132 -100 -2 2 24 40
57 84 33 44 69 93 81 110 l22 30 -30 -22 c-51 -36 -210 -204 -264 -277 -28
-38 -51 -64 -51 -58 0 22 62 167 108 256 26 49 77 124 115 168 37 43 64 78 60
78 -5 0 -55 -36 -112 -80 -57 -44 -108 -80 -113 -80 -19 0 14 40 99 120 95 90
94 93 -7 20 -100 -73 -150 -103 -156 -97 -4 3 40 54 97 113 93 96 99 105 61
83 -24 -13 -73 -48 -109 -78 -36 -30 -62 -48 -58 -40 24 40 73 110 109 154
l41 49 -60 -33 c-33 -19 -71 -41 -85 -50 -28 -18 -32 -24 45 79 27 36 89 115
139 175 50 61 81 103 69 95 -12 -8 -64 -44 -115 -79 -51 -36 -120 -84 -152
-109 l-59 -44 49 63 c27 35 102 118 167 185 64 68 117 126 117 129 0 4 -19
-10 -42 -30 -93 -78 -220 -177 -213 -164 5 8 27 37 50 64 124 151 134 181 36
104 -45 -35 -92 -71 -104 -79 l-22 -15 23 30 c128 171 292 406 292 418 0 2
-55 -51 -122 -118 -68 -67 -139 -132 -158 -145 -31 -22 -28 -17 21 40 31 36
116 146 188 245 143 195 250 329 257 322 2 -2 -11 -37 -30 -78 -46 -99 -104
-279 -83 -259 6 7 166 282 202 348 15 28 30 50 33 48 2 -3 -30 -89 -71 -192
-41 -102 -72 -182 -68 -178 30 34 204 328 248 418 42 88 52 103 47 71 -10 -64
-70 -237 -109 -315 -20 -40 -34 -74 -32 -76 4 -5 94 153 201 355 38 72 71 130
72 128 1 -1 -8 -38 -21 -82 -42 -148 -65 -280 -64 -377 1 -102 1 -102 44 52
34 124 100 307 142 395 36 76 36 74 -7 -94 -35 -136 -53 -250 -48 -311 3 -40
11 -20 73 185 l70 230 6 -110 c3 -61 12 -137 20 -170 l13 -60 7 81 c4 44 16
118 27 165 20 83 80 259 88 259 3 0 2 -39 -2 -87 -6 -87 9 -292 25 -335 5 -13
6 11 3 58 -5 86 9 216 35 329 l17 70 7 -40 c5 -22 6 -57 3 -77z m123 60 c-3
-8 -6 -5 -6 6 -1 11 2 17 5 13 3 -3 4 -12 1 -19z m8213 -43 c0 -5 -5 -3 -10 5
-5 8 -10 20 -10 25 0 6 5 3 10 -5 5 -8 10 -19 10 -25z m-2701 -9499 c-12 -31
-24 -55 -26 -53 -2 3 6 30 18 61 11 32 23 55 25 53 3 -2 -5 -30 -17 -61z m-42
-118 c-3 -8 -6 -5 -6 6 -1 11 2 17 5 13 3 -3 4 -12 1 -19z"/>
<path d="M23515 23151 l-50 -7 60 -8 c233 -30 412 -71 535 -120 36 -15 54 -24
40 -21 -14 3 -74 17 -134 31 -363 84 -806 102 -1174 48 -135 -20 -341 -72
-468 -119 -153 -56 -406 -185 -544 -277 -69 -45 -132 -87 -140 -92 -8 -5 26
33 75 85 50 52 118 130 153 173 62 77 162 220 162 231 0 3 -40 -30 -88 -73
-156 -136 -579 -452 -607 -451 -5 0 103 111 240 246 138 135 240 241 228 235
-28 -16 -214 -153 -283 -211 -94 -78 -293 -257 -335 -301 -22 -23 -53 -51 -70
-63 l-30 -21 29 39 c126 170 295 368 396 463 59 57 37 45 -80 -42 -223 -166
-486 -457 -704 -779 -36 -54 -66 -93 -66 -89 0 21 75 193 121 281 93 175 193
308 333 444 74 72 77 76 29 43 -244 -172 -458 -438 -623 -777 -70 -142 -68
-127 7 96 61 181 181 433 244 515 41 53 41 54 8 26 -157 -132 -369 -466 -483
-761 -41 -107 -45 -95 -11 35 52 196 118 366 184 478 42 71 24 58 -36 -26
-136 -191 -278 -479 -372 -758 -28 -82 -51 -143 -51 -137 0 7 12 68 26 135 56
270 131 511 214 686 27 56 47 102 45 102 -2 0 -24 -30 -48 -67 -56 -84 -144
-261 -203 -404 -87 -212 -252 -731 -242 -761 3 -7 39 69 80 167 93 220 109
256 103 230 -2 -11 -21 -86 -40 -167 -41 -167 -125 -568 -119 -568 2 0 38 69
80 153 98 195 345 667 349 667 2 0 -17 -48 -41 -107 -121 -288 -294 -724 -294
-741 0 -21 159 268 344 623 86 165 156 297 156 293 0 -25 -209 -591 -284 -767
-20 -47 -34 -86 -32 -88 5 -5 133 195 205 320 34 59 116 208 182 330 65 122
119 219 119 215 0 -10 -66 -180 -101 -261 -46 -105 -188 -387 -252 -499 -31
-54 -54 -98 -51 -98 2 0 31 36 64 81 110 148 274 425 449 759 39 74 71 132 71
128 0 -3 -23 -60 -51 -125 -79 -186 -204 -431 -304 -599 -51 -84 -92 -154 -90
-154 18 0 265 338 364 499 35 55 65 101 67 101 6 0 -111 -231 -164 -325 -68
-119 -164 -264 -212 -318 -23 -26 -40 -50 -38 -53 3 -2 49 5 104 16 194 40
500 130 1119 330 467 151 591 186 855 246 392 88 798 144 1042 144 l133 -1
-55 -23 c-70 -29 -169 -80 -195 -100 -17 -12 -7 -12 53 4 254 64 567 51 837
-36 255 -82 508 -266 705 -514 60 -75 77 -89 127 -109 77 -32 84 -40 26 -31
-26 5 -49 7 -51 5 -2 -2 72 -33 164 -69 92 -36 169 -64 171 -63 1 2 -38 32
-87 67 -50 35 -90 65 -90 67 0 2 46 -20 102 -48 l101 -51 -7 149 c-33 730
-210 1300 -494 1597 -63 65 -54 66 56 4 178 -102 356 -322 437 -541 34 -90 26
-39 -10 70 -215 644 -756 1079 -1445 1163 -90 11 -361 11 -445 1z"/>
<path d="M25800 22444 c52 -55 99 -101 103 -103 22 -9 -23 50 -82 110 -107
107 -125 101 -21 -7z"/>
<path d="M20115 22337 c-174 -177 -286 -477 -339 -916 -14 -115 -30 -374 -20
-336 3 11 16 81 30 155 86 463 240 905 398 1143 32 47 4 29 -69 -46z"/>
<path d="M16490 22329 c0 -3 22 -94 50 -202 27 -108 64 -281 82 -384 28 -166
32 -210 32 -379 1 -169 2 -187 14 -150 26 88 42 214 42 341 0 202 -38 385
-119 580 -34 81 -101 209 -101 194z"/>
<path d="M22205 20749 c-315 -33 -672 -172 -1010 -393 -196 -129 -469 -360
-580 -492 -53 -64 -52 -63 74 44 462 396 1006 694 1381 756 309 52 673 15
1038 -106 164 -54 370 -152 492 -233 72 -48 221 -187 289 -270 45 -55 15 -4
-58 99 -226 317 -665 539 -1176 596 -105 11 -335 11 -450 -1z"/>
<path d="M13410 20600 c-333 -41 -573 -149 -705 -318 -25 -31 -45 -60 -45 -65
0 -4 32 17 70 46 200 152 453 251 708 278 363 37 994 -45 1396 -182 342 -117
672 -325 1020 -643 103 -94 113 -102 68 -49 -61 72 -198 198 -325 301 -230
187 -498 344 -739 433 -190 70 -533 149 -798 184 -146 19 -539 28 -650 15z"/>
<path d="M13750 20250 c-243 -17 -490 -82 -707 -186 -297 -142 -561 -400 -707
-690 -38 -78 -86 -187 -86 -198 0 -2 28 5 63 16 80 26 216 28 307 4 36 -10
107 -37 158 -62 l94 -44 -33 37 c-101 116 -90 254 34 389 192 210 515 388 809
445 135 26 139 25 70 -21 -88 -59 -192 -175 -241 -269 -60 -115 -83 -212 -83
-346 0 -213 66 -370 217 -520 120 -120 161 -141 301 -155 129 -12 380 -13 481
-1 90 11 166 55 263 152 279 279 290 707 28 1022 -22 26 -35 47 -30 47 21 0
244 -120 342 -184 130 -85 299 -214 450 -343 63 -54 143 -120 177 -146 69 -54
98 -103 88 -146 -12 -56 -107 -127 -235 -177 -33 -13 -31 -14 40 -8 41 3 176
9 300 13 263 9 286 15 320 87 l22 44 -21 44 c-26 53 -76 92 -326 258 -104 69
-237 164 -295 212 -302 247 -490 371 -755 501 -260 128 -501 199 -759 224
-117 12 -126 12 -286 1z m756 -669 c52 -24 84 -74 84 -132 0 -134 -157 -199
-252 -104 -92 91 -25 250 107 254 11 0 38 -8 61 -18z m-551 -296 c16 -15 25
-36 25 -55 0 -19 -9 -40 -25 -55 -48 -49 -135 -15 -135 52 1 71 86 108 135 58z"/>
<path d="M22345 20195 c-11 -2 -69 -9 -130 -15 -327 -35 -635 -150 -940 -353
-49 -34 -161 -114 -248 -180 -204 -153 -304 -216 -545 -339 -288 -147 -332
-180 -332 -248 0 -40 35 -75 88 -89 22 -6 136 -15 253 -21 198 -9 333 -25 419
-50 54 -16 59 -12 13 9 -54 25 -132 97 -149 138 -38 89 -2 185 108 288 133
126 571 390 789 475 l54 21 -31 -33 c-76 -81 -143 -210 -170 -326 -20 -87 -20
-248 1 -337 8 -38 36 -112 61 -164 38 -78 61 -109 133 -182 54 -55 104 -96
132 -108 99 -43 387 -68 597 -52 128 10 136 12 194 47 139 85 266 253 316 418
32 105 36 294 8 396 -52 193 -180 359 -356 463 l-45 27 51 0 c65 0 207 -24
299 -51 289 -85 559 -306 682 -558 63 -131 48 -217 -61 -330 -29 -31 -43 -51
-31 -46 11 4 66 25 122 46 156 60 261 82 385 83 125 0 118 -15 61 131 -141
357 -428 653 -782 806 -110 47 -263 93 -386 115 -83 15 -503 29 -560 19z m310
-625 c89 -55 86 -200 -5 -253 -66 -40 -171 -12 -205 53 -19 38 -19 113 0 151
35 66 142 91 210 49z m-596 -336 c42 -54 13 -118 -54 -118 -67 0 -96 64 -54
118 15 19 30 26 54 26 24 0 39 -7 54 -26z"/>
<path d="M16880 14490 c-25 -4 -56 -12 -70 -18 -23 -8 -20 -10 29 -21 65 -14
125 -49 241 -141 184 -146 230 -162 382 -135 54 10 95 22 91 26 -5 4 -94 56
-200 117 -280 160 -366 192 -473 172z"/>
<path d="M19695 14421 c-27 -10 -90 -43 -140 -74 -109 -68 -327 -222 -301
-213 10 3 86 17 170 31 223 36 315 73 390 155 36 40 56 77 56 106 0 21 -112
18 -175 -5z"/>
<path d="M19220 13666 c0 -2 7 -7 16 -10 8 -3 12 -2 9 4 -6 10 -25 14 -25 6z"/>
<path d="M17595 13620 c-3 -6 1 -7 9 -4 18 7 21 14 7 14 -6 0 -13 -4 -16 -10z"/>
<path d="M21500 13146 c0 -2 8 -10 18 -17 15 -13 16 -12 3 4 -13 16 -21 21
-21 13z"/>
<path d="M23639 11835 c5 -11 17 -29 26 -40 l16 -20 -10 20 c-5 11 -17 29 -26
40 l-16 20 10 -20z"/>
<path d="M23495 11696 c10 -14 19 -26 22 -26 7 0 -17 39 -28 46 -6 3 -3 -5 6
-20z"/>
<path d="M12619 11693 c-13 -16 -12 -17 4 -4 9 7 17 15 17 17 0 8 -8 3 -21
-13z"/>
<path d="M15031 22604 c0 -11 3 -14 6 -6 3 7 2 16 -1 19 -3 4 -6 -2 -5 -13z"/>
<path d="M8865 19210 c-29 -32 -32 -164 -7 -320 21 -130 362 -1519 373 -1520
13 0 90 300 134 517 25 122 61 273 80 335 98 314 104 374 51 482 -49 100 -233
277 -477 459 -89 67 -126 78 -154 47z"/>
<path d="M18176 11905 c-9 -26 -7 -32 5 -12 6 10 9 21 6 23 -2 3 -7 -2 -11
-11z"/>
<path d="M17391 11439 c-18 -33 -31 -62 -29 -65 3 -2 20 23 37 57 18 33 31 62
29 64 -2 2 -19 -23 -37 -56z"/>
<path d="M16522 10960 c0 -14 2 -19 5 -12 2 6 2 18 0 25 -3 6 -5 1 -5 -13z"/>
<path d="M16412 10840 c0 -19 2 -27 5 -17 2 9 2 25 0 35 -3 9 -5 1 -5 -18z"/>
<path d="M14106 10214 c-5 -14 -4 -15 9 -4 17 14 19 20 6 20 -5 0 -12 -7 -15
-16z"/>
<path d="M19674 10093 c4 -27 9 -84 12 -128 l4 -80 -15 53 c-8 29 -24 69 -34
90 l-20 37 -1 -85 -2 -85 -26 70 -27 70 -4 -65 -3 -65 -43 90 -44 90 0 -127
c-1 -75 -5 -129 -11 -133 -13 -8 -46 66 -57 125 l-8 45 -5 -65 -5 -65 -25 75
-25 75 -10 -69 c-11 -78 -15 -77 -55 14 -13 30 -27 59 -31 64 -4 4 -10 -42
-14 -103 -4 -61 -11 -111 -16 -111 -5 0 -9 15 -10 33 0 17 -6 64 -13 102 l-12
70 -13 -75 c-21 -125 -29 -136 -31 -40 -1 47 -5 94 -9 104 -7 19 -8 19 -15 0
-6 -16 -46 -198 -46 -210 0 -2 -4 -4 -9 -4 -13 0 -31 90 -32 163 -2 117 -14
129 -22 22 -4 -55 -7 -122 -7 -150 -1 -63 -15 -42 -24 35 -4 30 -10 69 -13 85
-5 27 -7 28 -14 10 -4 -11 -8 -54 -9 -95 l-2 -75 -23 88 c-13 49 -26 91 -30
95 -4 4 -5 -31 -1 -78 10 -129 -6 -129 -37 -1 -15 60 -27 117 -27 125 0 9 -4
16 -9 16 -5 0 -12 -64 -16 -142 -8 -154 -15 -157 -35 -13 -16 114 -25 132 -38
80 -6 -22 -14 -62 -18 -90 -10 -78 -20 -85 -33 -24 -32 152 -35 162 -42 142
-4 -10 -10 -53 -14 -95 -13 -140 -28 -116 -58 97 -7 49 -16 85 -19 80 -3 -6
-13 -75 -23 -155 -9 -80 -20 -152 -22 -160 -11 -31 -21 36 -23 155 -1 135 -10
131 -36 -18 -9 -51 -21 -96 -25 -101 -5 -6 -9 41 -10 110 l-1 119 -18 -55
c-10 -30 -21 -79 -25 -107 -4 -29 -11 -51 -15 -48 -4 2 -16 46 -25 97 -20 103
-21 103 -51 -37 -17 -75 -18 -78 -25 -45 -4 19 -10 65 -14 103 -4 37 -10 67
-14 67 -5 0 -14 -35 -21 -77 -18 -112 -26 -129 -34 -73 -22 136 -29 170 -36
170 -4 0 -15 -48 -24 -107 -9 -59 -19 -109 -21 -112 -3 -2 -5 16 -6 40 -1 62
-35 257 -42 239 -27 -74 -59 -186 -64 -228 -3 -29 -9 -52 -13 -52 -6 0 -53
154 -62 205 -2 11 -12 -14 -22 -55 -10 -41 -24 -86 -31 -100 -12 -22 -13 -16
-20 65 -10 137 -15 142 -41 42 -12 -49 -25 -91 -28 -94 -3 -4 -6 38 -6 92 0
121 -12 116 -37 -13 -16 -87 -32 -119 -34 -69 0 12 -6 67 -13 122 l-11 100
-38 -100 c-20 -55 -40 -115 -43 -133 -15 -74 -31 -38 -43 92 l-6 71 -24 -98
c-14 -58 -27 -93 -31 -85 -4 7 -13 47 -20 88 -7 41 -16 81 -20 89 -4 7 -15
-28 -25 -80 -10 -52 -21 -100 -25 -108 -8 -14 -40 106 -40 148 0 11 -4 22 -9
25 -5 4 -14 -27 -21 -66 -17 -104 -30 -152 -40 -142 -8 9 -47 174 -53 224 -2
25 -30 -99 -45 -200 l-7 -55 -24 105 c-32 145 -32 144 -50 58 -9 -42 -19 -79
-22 -83 -4 -3 -12 45 -19 107 -14 122 -23 121 -34 -2 -4 -41 -10 -93 -13 -115
-5 -36 -7 -38 -13 -15 -4 14 -13 86 -19 160 -7 74 -14 142 -15 150 -1 8 -10
-19 -20 -60 -12 -49 -19 -115 -19 -193 0 -64 -2 -115 -4 -114 -7 8 -42 186
-49 252 -9 90 -20 64 -34 -82 -5 -58 -11 -108 -13 -110 -4 -4 -35 177 -40 232
-6 66 -27 -50 -34 -183 -3 -73 -9 -135 -13 -137 -13 -8 -62 196 -55 231 3 19
2 34 -2 34 -36 -2 -69 -151 -59 -262 6 -67 44 -186 83 -263 l21 -40 -4 110 -4
110 14 -61 c24 -104 107 -282 166 -354 16 -20 14 -11 -9 40 -26 59 -52 183
-50 243 0 12 13 -18 28 -68 36 -116 63 -174 119 -257 24 -38 46 -68 47 -68 2
0 -10 33 -26 74 -25 64 -71 236 -64 236 2 0 32 -53 68 -117 36 -65 73 -127 82
-138 l16 -20 -5 20 c-19 73 -46 192 -46 205 0 21 117 -197 158 -295 l33 -80
-6 70 c-3 39 -15 121 -26 184 -11 62 -18 115 -16 117 2 3 22 -51 45 -118 37
-109 62 -214 90 -373 8 -48 9 -44 16 63 5 61 6 163 2 225 -7 148 7 95 34 -128
11 -93 23 -171 25 -174 16 -15 20 38 20 261 l0 251 17 -73 c20 -85 58 -373 58
-437 0 -27 4 -42 10 -38 6 3 10 30 10 58 0 83 51 451 64 464 2 2 11 -96 21
-217 l19 -220 17 70 c24 94 78 272 84 278 3 3 5 -18 5 -47 0 -28 5 -95 11
-147 5 -52 13 -163 17 -247 l8 -152 41 170 c23 94 49 210 57 259 9 49 17 91
20 93 17 17 17 -512 0 -575 -2 -10 8 8 22 38 31 65 94 254 120 360 l19 75 8
-90 c7 -80 -4 -342 -18 -415 -3 -14 9 16 25 65 27 80 39 128 79 305 20 90 0
-150 -25 -299 -13 -79 -22 -146 -20 -148 2 -2 18 36 36 84 86 235 119 366 121
470 l1 58 20 -60 c16 -46 21 -96 25 -220 9 -281 40 -228 50 88 3 108 8 196 9
194 11 -11 36 -226 41 -355 3 -84 7 -151 9 -150 3 4 22 230 30 366 3 62 8 111
10 109 2 -1 19 -79 38 -173 l35 -169 2 175 c1 96 4 189 8 205 6 26 9 20 24
-48 9 -44 20 -127 24 -185 l7 -107 22 130 c12 72 25 153 29 180 l8 50 9 -50
c5 -27 12 -106 16 -175 l7 -125 28 170 c15 94 31 202 35 240 l8 70 8 -98 c4
-54 5 -135 2 -180 -9 -134 12 -43 26 113 13 140 24 143 27 7 2 -104 17 -71 24
50 3 59 12 126 19 148 12 40 13 39 19 -60 4 -55 8 -170 9 -255 l2 -155 19 65
c11 36 33 133 50 215 42 209 49 216 46 52 -1 -75 -1 -137 0 -137 1 0 21 59 45
130 23 72 46 130 49 130 10 0 22 -142 15 -181 -3 -19 14 24 38 95 l43 130 7
-76 c4 -41 5 -109 1 -149 l-6 -74 40 93 c22 51 51 140 64 199 l24 107 7 -51
c3 -28 4 -96 1 -150 l-5 -98 29 130 28 130 7 -113 c6 -77 12 -110 18 -104 8 8
23 229 28 416 0 11 2 17 5 14 6 -6 62 -306 72 -393 l9 -70 23 95 c13 56 26
147 30 220 l7 125 17 -90 c9 -49 17 -108 17 -130 0 -22 5 -47 10 -55 7 -10 10
8 11 60 1 41 4 102 8 135 6 59 7 58 24 -80 10 -77 20 -144 22 -150 2 -5 4 53
5 130 l2 140 15 -100 c7 -55 17 -116 20 -135 l7 -35 7 50 c4 28 10 106 15 175
l8 125 23 -105 c12 -58 23 -139 23 -180 1 -56 4 -69 10 -52 18 43 40 178 48
282 l7 105 23 -60 c26 -67 42 -139 43 -199 1 -41 1 -41 10 -11 6 19 6 78 -1
164 -6 73 -9 135 -7 137 2 2 19 -40 39 -93 l36 -97 7 118 c4 65 5 142 2 170
-5 49 -60 211 -75 220 -4 2 -6 -30 -5 -72 l2 -77 -13 50 c-15 62 -38 108 -51
107 -5 -1 -12 -27 -15 -57 l-5 -56 -25 63 -25 63 -5 -65 -5 -65 -22 35 c-12
19 -35 66 -52 103 -17 37 -33 67 -37 67 -4 0 -4 -21 0 -47z m-2357 -795 c-3
-8 -6 -5 -6 6 -1 11 2 17 5 13 3 -3 4 -12 1 -19z"/>
<path d="M14120 9775 c-14 -8 -20 -14 -15 -14 6 0 21 6 35 14 14 8 21 14 15
14 -5 0 -21 -6 -35 -14z"/>
<path d="M22186 9664 c-4 -14 -5 -28 -3 -31 3 -2 8 8 11 23 4 14 5 28 3 31 -3
2 -8 -8 -11 -23z"/>
<path d="M16740 9340 c6 -11 13 -20 16 -20 2 0 0 9 -6 20 -6 11 -13 20 -16 20
-2 0 0 -9 6 -20z"/>
<path d="M22000 9273 c0 -12 58 -93 66 -93 3 0 -5 18 -18 41 -23 42 -48 69
-48 52z"/>
<path d="M21590 9092 c0 -5 7 -15 15 -22 8 -7 15 -8 15 -2 0 5 -7 15 -15 22
-8 7 -15 8 -15 2z"/>
<path d="M18937 8933 c-9 -25 -15 -48 -13 -50 2 -2 12 16 21 42 10 25 16 47
13 50 -2 2 -12 -17 -21 -42z"/>
<path d="M14989 8850 c-19 -10 -42 -27 -50 -36 -11 -14 -5 -13 26 5 38 23 75
52 65 51 -3 -1 -21 -9 -41 -20z"/>
<path d="M15229 8303 c-13 -17 -13 -17 6 -3 11 8 22 16 24 17 2 2 0 3 -6 3 -6
0 -17 -8 -24 -17z"/>
<path d="M17166 7908 c-3 -13 -6 -68 -5 -123 0 -77 3 -94 10 -75 15 37 24 220
12 220 -6 0 -13 -10 -17 -22z"/>
<path d="M16633 7868 c-12 -15 -33 -76 -33 -92 0 -12 60 84 60 97 0 11 -17 8
-27 -5z"/>
<path d="M17602 7845 c0 -16 2 -22 5 -12 2 9 2 23 0 30 -3 6 -5 -1 -5 -18z"/>
<path d="M17412 7835 c-1 -16 3 -48 7 -70 8 -35 9 -36 9 -10 1 17 -3 48 -7 70
-8 35 -9 36 -9 10z"/>
<path d="M17945 7740 c-4 -23 -5 -44 -2 -46 3 -3 8 13 12 36 4 23 5 44 2 46
-3 3 -8 -13 -12 -36z"/>
<path d="M16891 7739 c-6 -18 -11 -37 -10 -43 0 -6 7 7 15 28 8 22 12 41 10
43 -2 2 -9 -10 -15 -28z"/>
<path d="M19150 7743 c1 -12 39 -79 40 -70 0 12 -28 77 -34 77 -4 0 -6 -3 -6
-7z"/>
<path d="M17252 7675 c0 -16 2 -22 5 -12 2 9 2 23 0 30 -3 6 -5 -1 -5 -18z"/>
<path d="M17242 35392 c-8 -6 19 -11 72 -15 152 -12 548 -91 711 -142 11 -3 0
5 -25 18 -111 60 -349 120 -525 132 -49 3 -119 8 -155 10 -36 3 -71 1 -78 -3z"/>
<path d="M18240 35159 c-47 -28 -89 -56 -95 -62 -5 -6 1 -4 15 4 14 9 58 35
98 58 62 37 81 51 70 51 -2 0 -41 -23 -88 -51z"/>
<path d="M18918 34323 c7 -3 16 -2 19 1 4 3 -2 6 -13 5 -11 0 -14 -3 -6 -6z"/>
<path d="M18858 34313 c6 -2 18 -2 25 0 6 3 1 5 -13 5 -14 0 -19 -2 -12 -5z"/>
<path d="M11868 31663 c7 -3 16 -2 19 1 4 3 -2 6 -13 5 -11 0 -14 -3 -6 -6z"/>
<path d="M8621 30194 c0 -11 3 -14 6 -6 3 7 2 16 -1 19 -3 4 -6 -2 -5 -13z"/>
<path d="M7552 27055 c0 -16 2 -22 5 -12 2 9 2 23 0 30 -3 6 -5 -1 -5 -18z"/>
<path d="M26921 13694 c0 -11 3 -14 6 -6 3 7 2 16 -1 19 -3 4 -6 -2 -5 -13z"/>
<path d="M9846 11600 c4 -19 10 -44 15 -55 l8 -20 0 20 c0 11 -7 36 -15 55
l-14 35 6 -35z"/>
<path d="M25535 6517 c10 -15 20 -25 23 -22 3 3 -5 16 -17 28 l-23 22 17 -28z"/>
<path d="M25415 6160 l-40 -7 47 -2 c26 0 50 4 53 9 7 11 1 11 -60 0z"/>
<path d="M11262 6100 c0 -14 2 -19 5 -12 2 6 2 18 0 25 -3 6 -5 1 -5 -13z"/>
<path d="M23911 4544 c0 -11 3 -14 6 -6 3 7 2 16 -1 19 -3 4 -6 -2 -5 -13z"/>
<path d="M23761 4384 c0 -11 3 -14 6 -6 3 7 2 16 -1 19 -3 4 -6 -2 -5 -13z"/>
<path d="M11811 4124 c0 -11 3 -14 6 -6 3 7 2 16 -1 19 -3 4 -6 -2 -5 -13z"/>
<path d="M12070 3630 c6 -11 13 -20 16 -20 2 0 0 9 -6 20 -6 11 -13 20 -16 20
-2 0 0 -9 6 -20z"/>
<path d="M12450 3335 c13 -22 36 -53 53 -70 36 -36 27 -16 -21 45 -51 64 -58
71 -32 25z"/>
<path d="M21642 1790 c0 -14 2 -19 5 -12 2 6 2 18 0 25 -3 6 -5 1 -5 -13z"/>
<path d="M21421 1704 c0 -11 3 -14 6 -6 3 7 2 16 -1 19 -3 4 -6 -2 -5 -13z"/>
<path d="M18081 364 c0 -11 3 -14 6 -6 3 7 2 16 -1 19 -3 4 -6 -2 -5 -13z"/>
</g>
</svg>
